<?xml version="1.0" encoding="UTF-8" standalone="no"?>
<!-- Created with Inkscape (http://www.inkscape.org/) -->

<svg
   xmlns:dc="http://purl.org/dc/elements/1.1/"
   xmlns:cc="http://creativecommons.org/ns#"
   xmlns:rdf="http://www.w3.org/1999/02/22-rdf-syntax-ns#"
   xmlns:svg="http://www.w3.org/2000/svg"
   xmlns="http://www.w3.org/2000/svg"
   xmlns:sodipodi="http://sodipodi.sourceforge.net/DTD/sodipodi-0.dtd"
   xmlns:inkscape="http://www.inkscape.org/namespaces/inkscape"
   width="48"
   height="48"
   id="svg3445"
   version="1.1"
   inkscape:version="0.91 r"
   viewBox="0 0 48 48"
   sodipodi:docname="buty.svg">
  <defs
     id="defs3447" />
  <sodipodi:namedview
     id="base"
     pagecolor="#ffffff"
     bordercolor="#666666"
     borderopacity="1.0"
     inkscape:pageopacity="0.0"
     inkscape:pageshadow="2"
     inkscape:zoom="4"
     inkscape:cx="18.231729"
     inkscape:cy="17.624948"
     inkscape:current-layer="layer4"
     showgrid="true"
     inkscape:grid-bbox="true"
     inkscape:document-units="px"
     inkscape:window-width="1366"
     inkscape:window-height="715"
     inkscape:window-x="0"
     inkscape:window-y="0"
     inkscape:window-maximized="1" />
  <metadata
     id="metadata3450">
    <rdf:RDF>
      <cc:Work
         rdf:about="">
        <dc:format>image/svg+xml</dc:format>
        <dc:type
           rdf:resource="http://purl.org/dc/dcmitype/StillImage" />
        <dc:title></dc:title>
      </cc:Work>
    </rdf:RDF>
  </metadata>
  <g
     inkscape:groupmode="layer"
     id="layer4"
     inkscape:label="drugi">
    <path
       style="fill:#784421"
       d="m 38.743601,29.13685 c -1.011339,6.367074 -5.454886,16.034932 -16.721309,6.810609 -1.204884,-0.986491 -3.012178,-8.368172 -4.57239,-8.724678 -1.382748,-0.315955 -1.626437,-3.269273 -2.63355,-3.90375 -0.983211,-0.619421 -1.140911,-2.498863 -1.787753,-3.137322 -0.910314,-0.898513 -0.806295,-2.482619 -1.172033,-2.93447 -1.067196,-1.318466 -0.559484,-3.146943 -0.08974,-4.852119 1.236997,-4.4903375 15.064475,-6.2161743 18.395761,4.003063 2.672037,8.196887 9.273932,8.376271 8.581015,12.738667 z"
       id="path3470-8"
       inkscape:connector-curvature="0"
       sodipodi:nodetypes="sssssssss" />
    <path
       style="fill:#000000"
       d="m 17.308016,27.175079 c 0.468144,0.01651 1.763434,1.131557 2.178222,2.786471 0.935479,2.484849 1.593894,4.372165 3.335007,6.387334 -0.899681,-2.664532 15.228917,-9.553896 16.126864,-7.66413 0.07725,0.16259 -3.910875,-0.149252 -13.93067,5.984314 -0.455443,0.278796 -2.196194,1.679816 -1.043132,2.493606 3.207739,2.263904 3.755486,2.227577 5.862326,2.524852 2.670461,-0.60599 2.862856,-0.210177 5.203406,-2.390795 1.822497,-1.697964 3.603383,-8.701814 3.656025,-8.785676 0.791374,-1.260693 0.466062,6.178286 -1.161728,8.742652 -1.81183,2.8543 -2.390358,3.717013 -8.883969,3.901107 -2.911954,0.08256 -5.324016,-1.423863 -7.688196,-4.424276 -1.169572,-2.735624 -2.493658,-6.056898 -3.610777,-8.194922 -0.115609,-0.221262 -0.765046,-1.856918 -0.04338,-1.360537 z"
       id="rect3501-5"
       inkscape:connector-curvature="0"
       sodipodi:nodetypes="cccssscsssscsc" />
    <path
       style="fill:#2b0000"
       d="m 23.655199,36.930046 c -1.624216,-2.017695 10.116743,-7.769727 14.911699,-8.118811 -0.344081,3.445387 -1.026587,6.232239 -4.348118,9.538361 -0.873532,0.830598 -1.875867,1.102176 -4.353568,1.35611 -2.684716,0.02059 -4.419569,-1.312338 -6.210013,-2.77566 z"
       id="rect3504-1"
       inkscape:connector-curvature="0"
       sodipodi:nodetypes="ccccc" />
    <path
       style="fill:#000000"
       d="m 10.851838,20.067902 0.46,-4.128797 c 1.142639,1.654106 1.279238,2.309633 1.615715,3.724782 0.09053,0.380745 0.18162,0.198209 0.47715,0.685899 0.495953,0.818433 1.020833,2.431161 1.318809,2.910128 l -0.191667,2.949139 z"
       id="rect3583-1"
       inkscape:connector-curvature="0"
       sodipodi:nodetypes="ccssccc" />
    <path
       style="fill:#1a1a1a"
       d="m 14.60719,23.092139 c 0.331065,0.256279 0.722711,0.53843 1.111339,1.521084 l 0.636986,1.521084 -1.843194,0.01226 z"
       id="rect3586-7"
       inkscape:connector-curvature="0"
       sodipodi:nodetypes="ccccc" />
    <ellipse
       style="fill:#000000"
       id="path3589-6"
       cx="19.989565"
       cy="20.397511"
       rx="1.2745861"
       ry="1.1839932" />
    <ellipse
       style="fill:#000000"
       id="path3589-7-2"
       cx="22.136234"
       cy="24.374514"
       rx="1.2745861"
       ry="1.1839932" />
    <ellipse
       style="fill:#000000"
       id="path3589-5-3"
       cx="24.651867"
       cy="28.017569"
       rx="1.2745861"
       ry="1.1839932" />
    <ellipse
       style="fill:#000000"
       id="path3589-0-3"
       cx="29.448338"
       cy="18.60634"
       rx="1.2745861"
       ry="1.1839932" />
    <ellipse
       style="fill:#000000"
       id="path3589-1-8"
       cx="31.125422"
       cy="21.915451"
       rx="1.2745861"
       ry="1.1839932" />
    <ellipse
       style="fill:#000000"
       id="path3589-2-1"
       cx="33.339176"
       cy="25.679945"
       rx="1.2745861"
       ry="1.1839932" />
    <path
       style="fill:#28170b;fill-opacity:1"
       d="m 12.655571,5.1825991 c 0.0871,-0.9245418 0.170436,-1.4980814 2.791026,-2.0218906 2.715439,-2.59322801 4.42459,-4.3922171 6.939965,-0.2106683 3.73563,1.2091636 2.039805,4.9233551 2.440021,5.3902135 0.497206,0.5799982 3.089673,9.4291553 2.017553,10.7959463 L 21.545468,15.431016 15.63721,10.82533 C 14.472827,8.9607754 12.791265,7.0716876 12.655571,5.1825991 Z"
       id="rect3453-0"
       inkscape:connector-curvature="0"
       sodipodi:nodetypes="cccscccc" />
    <path
       style="fill:#502d16"
       d="m 11.801737,5.293001 c 0.03323,-0.3510854 0.344158,-1.1826538 0.855365,-1.7039606 1.917381,-1.1360792 2.034202,-1.0741961 3.478858,-1.0765152 l -0.654255,0.6384975 c -0.870915,0.1819982 -1.661522,0.451218 -2.351783,0.8294301 -0.541788,1.2482161 0.411442,3.5537687 2.036433,5.9639881 0.09531,0.1413491 0.352646,0.7601341 0.471138,0.8861531 0.115232,0.122551 0.419799,0.245833 0.55418,0.350246 2.958066,2.298432 10.561322,8.250243 11.041904,8.158852 C 25.245029,20.112804 12.307895,10.391983 11.896609,7.0962217 11.820168,6.5778607 11.701833,6.1856268 11.801737,5.293001 Z"
       id="rect3464-3"
       inkscape:connector-curvature="0"
       sodipodi:nodetypes="cccccsssccc" />
    <path
       style="fill:#000000"
       d="m 24.314128,8.8170616 c 0.343276,-0.829055 0.281675,-3.0715985 0.01931,-4.2704498 -0.55448,-0.5690506 -0.837845,-1.0617673 -2.024524,-1.6943962 l 2.354534,0.9319683 1.002915,3.9499114 C 27.038878,12.578885 27.420453,16.42711 26.953215,19.421712 27.657967,17.933338 25.80644,12.838583 24.841492,11.111316 24.485537,10.352478 24.020943,9.7716938 24.314128,8.8170616 Z"
       id="rect3467-4"
       inkscape:connector-curvature="0"
       sodipodi:nodetypes="cccccccc" />
    <path
       style="fill:#241c1c"
       d="m 19.626927,19.342655 c 4.06098,0.265506 8.121562,0.528561 12.308793,1.571714 0.231513,0.680694 0.487099,1.363408 -0.305203,1.958072 -4.045631,-0.891527 -8.150915,-1.400332 -12.308794,-1.571714 -0.266095,-0.69966 0.04211,-1.325986 0.305204,-1.958072 z"
       id="rect3521-4"
       inkscape:connector-curvature="0"
       sodipodi:nodetypes="ccccc" />
    <path
       style="fill:#483737"
       d="m 20.276974,19.809375 c 3.684203,0.222651 7.333975,0.666212 10.939005,1.396806 0.625889,0.521645 0.265138,0.790227 -0.162366,1.041687 C 27.473567,21.505983 23.839221,20.9904 20.114606,20.85106 19.505323,20.419122 19.804157,20.103142 20.276974,19.809375 Z"
       id="rect3521-5-8"
       inkscape:connector-curvature="0"
       sodipodi:nodetypes="ccccc" />
    <path
       style="fill:#241c1c"
       d="m 29.431292,17.490694 c -2.752703,1.98445 -5.506414,3.966939 -7.939603,6.573446 0.193494,0.597868 0.370904,1.207827 1.248329,1.291491 2.412164,-2.433622 5.068324,-4.614813 7.939603,-6.573445 -0.178846,-0.626935 -0.728135,-0.947169 -1.248329,-1.291492 z"
       id="rect3521-0-7"
       inkscape:connector-curvature="0"
       sodipodi:nodetypes="ccccc" />
    <path
       style="fill:#483737"
       d="m 29.214019,18.117315 c -2.506903,1.787063 -4.872969,3.719831 -7.056042,5.841918 -0.171146,0.655968 0.227214,0.692475 0.664106,0.687069 2.159332,-2.119292 4.47649,-4.097713 7.056041,-5.84192 0.206552,-0.583312 -0.172664,-0.681644 -0.664105,-0.687067 z"
       id="rect3521-5-9-5"
       inkscape:connector-curvature="0"
       sodipodi:nodetypes="ccccc" />
    <path
       style="fill:#241c1c"
       d="m 21.652033,23.229808 c 4.060981,0.265505 8.121565,0.528561 12.308794,1.571714 0.231513,0.680693 0.4871,1.363408 -0.305202,1.958073 -4.04563,-0.891528 -8.150916,-1.400335 -12.308794,-1.571715 -0.266095,-0.69966 0.04211,-1.325987 0.305202,-1.958072 z"
       id="rect3521-1-2"
       inkscape:connector-curvature="0"
       sodipodi:nodetypes="ccccc" />
    <path
       style="fill:#483737"
       d="m 22.30208,23.696528 c 3.684205,0.22265 7.333975,0.666213 10.939007,1.396805 0.625886,0.521645 0.265137,0.790228 -0.162365,1.041689 -3.580048,-0.741887 -7.214392,-1.25747 -10.939009,-1.396809 -0.609282,-0.431939 -0.310447,-0.747919 0.162367,-1.041685 z"
       id="rect3521-5-5-2"
       inkscape:connector-curvature="0"
       sodipodi:nodetypes="ccccc" />
    <path
       style="fill:#241c1c"
       d="m 31.854657,21.994369 c -2.026741,2.395569 -4.051466,4.792007 -6.717661,6.912463 -0.614194,-0.165838 -1.240735,-0.31768 -1.329663,-1.078793 2.488861,-2.101613 4.717827,-4.414087 6.71766,-6.912463 0.64397,0.15303 0.974507,0.628577 1.329664,1.078793 z"
       id="rect3521-50-0"
       inkscape:connector-curvature="0"
       sodipodi:nodetypes="ccccc"
       inkscape:transform-center-x="-10.483092"
       inkscape:transform-center-y="-0.79820363" />
    <path
       style="fill:#483737"
       d="m 31.212398,22.185079 c -1.825048,2.181589 -3.800109,4.241468 -5.970084,6.143207 -0.672534,0.150784 -0.711395,-0.194773 -0.707377,-0.573913 2.167192,-1.881127 4.18927,-3.898724 5.970085,-6.143208 0.597853,-0.181255 0.700089,0.147477 0.707376,0.573914 z"
       id="rect3521-5-7-4"
       inkscape:connector-curvature="0"
       sodipodi:nodetypes="ccccc"
       inkscape:transform-center-x="-10.525644"
       inkscape:transform-center-y="-0.74705349" />
    <path
       style="fill:#483737;fill-opacity:1"
       d="m 34.732022,24.039221 a 5.4821961,2.5283691 21.629901 0 0 -3.890737,-4.3817 5.4821961,2.5283691 21.629901 0 0 -6.208173,0.133646 5.4821961,2.5283691 21.629901 0 0 3.889859,4.381329 5.4821961,2.5283691 21.629901 0 0 6.209051,-0.133275 z M 33.494935,23.50034 a 4.0857955,2.1826123 21.062044 0 1 -4.763075,0.367284 4.0857955,2.1826123 21.062044 0 1 -2.760811,-3.532167 4.0857955,2.1826123 21.062044 0 1 4.763072,-0.367284 4.0857955,2.1826123 21.062044 0 1 2.760814,3.532167 z"
       id="path4456-10"
       inkscape:connector-curvature="0" />
    <path
       style="fill:#483737;fill-opacity:1"
       d="m 24.028133,28.629671 a 2.739411,5.0598523 12.565034 0 0 3.72958,-4.495036 2.739411,5.0598523 12.565034 0 0 -1.677109,-5.41178 2.739411,5.0598523 12.565034 0 0 -3.729399,4.494171 2.739411,5.0598523 12.565034 0 0 1.676928,5.412645 z m 0.271234,-1.21813 a 2.3653269,3.7701795 13.052067 0 1 -1.570156,-4.086642 2.3653269,3.7701795 13.052067 0 1 3.099287,-3.29413 2.3653269,3.7701795 13.052067 0 1 1.570156,4.08664 2.3653269,3.7701795 13.052067 0 1 -3.099287,3.294132 z"
       id="path4456-1-9"
       inkscape:connector-curvature="0" />
    <path
       style="fill:#000000;fill-opacity:1"
       d="m 13.904165,13.822754 c 4.057275,2.802216 6.24119,7.768801 9.076791,12.409697 2.001727,3.276137 7.196016,4.121987 6.218244,9.266487 l -1.207503,-1.942964 -4.897095,-1.639376 z"
       id="rect4615"
       inkscape:connector-curvature="0"
       sodipodi:nodetypes="cscccc" />
  </g>
  <g
     inkscape:groupmode="layer"
     id="layer2"
     inkscape:label="but">
    <path
       style="fill:#784421"
       d="M 28.8009,35.980683 C 27.789562,42.347756 23.346015,52.015615 12.07959,42.791291 10.874708,41.804799 9.0674143,34.423119 7.5072028,34.066612 6.1244553,33.750657 5.8807653,30.797339 4.8736524,30.162862 3.8904411,29.543442 3.7327415,27.663999 3.0858993,27.025541 2.1755862,26.127027 2.2796042,24.54292 1.9138666,24.091071 0.84667129,22.772603 1.3543831,20.944127 1.8241248,19.238951 3.0611217,14.748612 16.888599,13.022777 20.219885,23.242014 c 2.672038,8.196887 9.273931,8.376273 8.581015,12.738669 z"
       id="path3470"
       inkscape:connector-curvature="0"
       sodipodi:nodetypes="sssssssss" />
    <path
       style="fill:#000000"
       d="m 7.3653149,34.018911 c 0.4681455,0.01651 1.7634358,1.131556 2.1782228,2.78647 0.9354803,2.484849 1.5938953,4.372165 3.3350063,6.387335 -0.899679,-2.664533 15.228919,-9.553897 16.126864,-7.66413 0.07725,0.16259 -3.910873,-0.149252 -13.930668,5.984314 -0.455442,0.278797 -2.196196,1.679816 -1.043132,2.493605 3.207737,2.263904 3.755484,2.227578 5.862323,2.524852 2.670462,-0.605989 2.862858,-0.210176 5.203408,-2.390794 1.822496,-1.697965 3.603382,-8.701814 3.656025,-8.785677 0.791373,-1.260693 0.466064,6.178288 -1.161728,8.742653 -1.811831,2.854299 -2.390359,3.717012 -8.883968,3.901106 -2.911955,0.08256 -5.324016,-1.423861 -7.688197,-4.424277 C 9.8498982,40.838744 8.5258121,37.517472 7.4086945,35.379446 7.2930859,35.158187 6.6436476,33.522529 7.3653149,34.018911 Z"
       id="rect3501"
       inkscape:connector-curvature="0"
       sodipodi:nodetypes="cccssscsssscsc" />
    <path
       style="fill:#2b0000"
       d="m 13.712498,43.773877 c -1.624214,-2.017695 10.116745,-7.769727 14.911699,-8.118811 -0.34408,3.445387 -1.026586,6.232238 -4.348117,9.538361 -0.873532,0.830599 -1.875868,1.102177 -4.353566,1.356112 -2.684718,0.02059 -4.419571,-1.312341 -6.210016,-2.775662 z"
       id="rect3504"
       inkscape:connector-curvature="0"
       sodipodi:nodetypes="ccccc" />
    <path
       style="fill:#000000"
       d="M 0.90913732,26.911734 1.3691383,22.782937 c 1.1426401,1.654105 1.2792379,2.309631 1.6157155,3.724783 0.090528,0.380743 0.1816201,0.19821 0.477149,0.685896 0.4959541,0.818434 1.0208337,2.431162 1.3188097,2.910129 l -0.191667,2.949141 z"
       id="rect3583"
       inkscape:connector-curvature="0"
       sodipodi:nodetypes="ccssccc" />
    <path
       style="fill:#1a1a1a"
       d="m 4.6644905,29.935969 c 0.3310652,0.256281 0.7227107,0.538431 1.1113389,1.521084 l 0.6369867,1.521085 -1.8431959,0.01226 z"
       id="rect3586"
       inkscape:connector-curvature="0"
       sodipodi:nodetypes="ccccc" />
    <ellipse
       style="fill:#000000"
       id="path3589"
       cx="10.046866"
       cy="27.241344"
       rx="1.2745861"
       ry="1.1839932" />
    <ellipse
       style="fill:#000000"
       id="path3589-7"
       cx="12.193538"
       cy="31.218344"
       rx="1.2745861"
       ry="1.1839932" />
    <ellipse
       style="fill:#000000"
       id="path3589-5"
       cx="14.709167"
       cy="34.861401"
       rx="1.2745861"
       ry="1.1839932" />
    <ellipse
       style="fill:#000000"
       id="path3589-0"
       cx="19.505636"
       cy="25.450171"
       rx="1.2745861"
       ry="1.1839932" />
    <ellipse
       style="fill:#000000"
       id="path3589-1"
       cx="21.182724"
       cy="28.759283"
       rx="1.2745861"
       ry="1.1839932" />
    <ellipse
       style="fill:#000000"
       id="path3589-2"
       cx="23.396479"
       cy="32.523769"
       rx="1.2745861"
       ry="1.1839932" />
  </g>
  <g
     id="layer1"
     inkscape:label="Layer 1"
     inkscape:groupmode="layer">
    <path
       style="fill:#28170b;fill-opacity:1"
       d="M 2.7128714,12.02643 C 2.7999684,11.101889 2.8833075,10.528349 5.5038982,10.00454 8.2193377,7.4113112 9.928487,5.612322 12.443862,9.7938709 c 3.735629,1.2091641 2.039807,4.9233561 2.440021,5.3902141 0.497206,0.579999 3.089673,9.429156 2.017553,10.795947 L 11.602769,22.274848 5.6945115,17.669162 C 4.5301278,15.804606 2.8485666,13.915518 2.7128714,12.02643 Z"
       id="rect3453"
       inkscape:connector-curvature="0"
       sodipodi:nodetypes="cccscccc" />
    <path
       style="fill:#502d16"
       d="M 1.8590379,12.136833 C 1.8922656,11.785747 2.2031968,10.954178 2.7144021,10.43287 4.6317838,9.2967922 4.7486043,9.3586742 6.1932608,9.3563553 L 5.5390058,9.9948534 C 4.6680917,10.176852 3.8774826,10.446072 3.1872231,10.824283 c -0.5417891,1.248217 0.4114408,3.55377 2.0364311,5.96399 0.0953,0.141349 0.3526472,0.760135 0.4711396,0.886152 0.1152323,0.122553 0.4197989,0.245833 0.5541795,0.350247 2.958066,2.298431 10.5613227,8.250244 11.0419047,8.158851 C 15.30233,26.956635 2.3651948,17.235815 1.9539083,13.940052 1.8774682,13.421692 1.759134,13.029457 1.8590379,12.136833 Z"
       id="rect3464"
       inkscape:connector-curvature="0"
       sodipodi:nodetypes="cccccsssccc" />
    <path
       style="fill:#000000"
       d="m 14.371428,15.660893 c 0.343275,-0.829054 0.281677,-3.0716 0.01931,-4.27045 -0.554479,-0.569051 -0.837844,-1.061768 -2.024524,-1.6943962 l 2.354534,0.9319682 1.002917,3.949912 c 1.372516,4.844788 1.75409,8.693015 1.286854,11.687616 0.70475,-1.488372 -1.146776,-6.583128 -2.111724,-8.310396 -0.355956,-0.758837 -0.820548,-1.339623 -0.527364,-2.294254 z"
       id="rect3467"
       inkscape:connector-curvature="0"
       sodipodi:nodetypes="cccccccc" />
    <path
       style="fill:#241c1c"
       d="m 9.6842265,26.186486 c 4.0609795,0.265507 8.1215645,0.528561 12.3087945,1.571715 0.231511,0.680694 0.487098,1.363407 -0.305205,1.958071 -4.045629,-0.891527 -8.150915,-1.400331 -12.3087927,-1.571714 -0.2660955,-0.699659 0.042106,-1.325986 0.3052032,-1.958072 z"
       id="rect3521"
       inkscape:connector-curvature="0"
       sodipodi:nodetypes="ccccc" />
    <path
       style="fill:#483737"
       d="m 10.334274,26.653206 c 3.684202,0.222652 7.333974,0.666214 10.939006,1.396806 0.625887,0.521645 0.265137,0.790228 -0.162367,1.041688 -3.580047,-0.741887 -7.214391,-1.257469 -10.939007,-1.396808 -0.6092836,-0.431939 -0.310448,-0.74792 0.162368,-1.041686 z"
       id="rect3521-5"
       inkscape:connector-curvature="0"
       sodipodi:nodetypes="ccccc" />
    <path
       style="fill:#241c1c"
       d="m 19.488593,24.334525 c -2.752704,1.984451 -5.506416,3.966939 -7.939604,6.573445 0.193494,0.597869 0.370903,1.207829 1.248328,1.291492 2.412166,-2.433622 5.068325,-4.614812 7.939603,-6.573446 -0.178845,-0.626935 -0.728135,-0.947167 -1.248327,-1.291491 z"
       id="rect3521-0"
       inkscape:connector-curvature="0"
       sodipodi:nodetypes="ccccc" />
    <path
       style="fill:#483737"
       d="m 19.271319,24.961147 c -2.506902,1.787061 -4.872968,3.71983 -7.056041,5.841917 -0.171147,0.655968 0.227214,0.692474 0.664105,0.687069 2.159332,-2.119293 4.476491,-4.097712 7.056041,-5.84192 0.206551,-0.583309 -0.172666,-0.681645 -0.664105,-0.687066 z"
       id="rect3521-5-9"
       inkscape:connector-curvature="0"
       sodipodi:nodetypes="ccccc" />
    <path
       style="fill:#241c1c"
       d="m 11.709334,30.073638 c 4.06098,0.265507 8.121562,0.528562 12.308793,1.571715 0.231512,0.680694 0.487101,1.363408 -0.305202,1.958073 -4.045631,-0.891528 -8.150915,-1.400333 -12.308794,-1.571715 -0.266095,-0.699658 0.04211,-1.325986 0.305203,-1.958073 z"
       id="rect3521-1"
       inkscape:connector-curvature="0"
       sodipodi:nodetypes="ccccc" />
    <path
       style="fill:#483737"
       d="m 12.359381,30.540359 c 3.684204,0.222652 7.333975,0.666213 10.939006,1.396806 0.625887,0.521646 0.265136,0.790227 -0.162366,1.041687 -3.580048,-0.741885 -7.214392,-1.257467 -10.939009,-1.396807 -0.609282,-0.431938 -0.310446,-0.747919 0.162369,-1.041686 z"
       id="rect3521-5-5"
       inkscape:connector-curvature="0"
       sodipodi:nodetypes="ccccc" />
    <path
       style="fill:#241c1c"
       d="m 21.911956,28.838201 c -2.02674,2.395569 -4.051465,4.792005 -6.71766,6.912464 -0.614193,-0.165839 -1.240736,-0.317681 -1.329664,-1.078795 2.488861,-2.101613 4.717828,-4.414086 6.717662,-6.912461 0.643968,0.153027 0.974506,0.628576 1.329662,1.078792 z"
       id="rect3521-50"
       inkscape:connector-curvature="0"
       sodipodi:nodetypes="ccccc"
       inkscape:transform-center-x="-10.483091"
       inkscape:transform-center-y="-0.79820206" />
    <path
       style="fill:#483737"
       d="m 21.269699,29.02891 c -1.82505,2.181589 -3.80011,4.241468 -5.970085,6.143207 -0.672536,0.150785 -0.711392,-0.194772 -0.707377,-0.573912 2.167191,-1.881129 4.18927,-3.898724 5.970085,-6.143207 0.597853,-0.181258 0.700089,0.147475 0.707377,0.573912 z"
       id="rect3521-5-7"
       inkscape:connector-curvature="0"
       sodipodi:nodetypes="ccccc"
       inkscape:transform-center-x="-10.525645"
       inkscape:transform-center-y="-0.74705336" />
    <path
       style="fill:#483737;fill-opacity:1"
       d="m 24.789321,30.883051 a 5.4821961,2.5283691 21.629901 0 0 -3.890735,-4.381698 5.4821961,2.5283691 21.629901 0 0 -6.208174,0.133646 5.4821961,2.5283691 21.629901 0 0 3.889859,4.381327 5.4821961,2.5283691 21.629901 0 0 6.20905,-0.133275 z m -1.237088,-0.53888 a 4.0857955,2.1826123 21.062044 0 1 -4.763073,0.367284 4.0857955,2.1826123 21.062044 0 1 -2.760811,-3.532166 4.0857955,2.1826123 21.062044 0 1 4.763072,-0.367284 4.0857955,2.1826123 21.062044 0 1 2.760812,3.532166 z"
       id="path4456"
       inkscape:connector-curvature="0" />
    <path
       style="fill:#483737;fill-opacity:1"
       d="m 14.085434,35.473501 a 2.739411,5.0598523 12.565034 0 0 3.729578,-4.495034 2.739411,5.0598523 12.565034 0 0 -1.677107,-5.411782 2.739411,5.0598523 12.565034 0 0 -3.729401,4.494172 2.739411,5.0598523 12.565034 0 0 1.67693,5.412644 z m 0.271232,-1.218129 a 2.3653269,3.7701795 13.052067 0 1 -1.570156,-4.086643 2.3653269,3.7701795 13.052067 0 1 3.099287,-3.294129 2.3653269,3.7701795 13.052067 0 1 1.570156,4.086641 2.3653269,3.7701795 13.052067 0 1 -3.099287,3.294131 z"
       id="path4456-1"
       inkscape:connector-curvature="0" />
  </g>
  <g
     inkscape:groupmode="layer"
     id="layer3"
     inkscape:label="sznu" />
</svg>
