<?xml version="1.0" encoding="UTF-8" standalone="no"?>
<!-- Created with Inkscape (http://www.inkscape.org/) -->

<svg
   xmlns:dc="http://purl.org/dc/elements/1.1/"
   xmlns:cc="http://creativecommons.org/ns#"
   xmlns:rdf="http://www.w3.org/1999/02/22-rdf-syntax-ns#"
   xmlns:svg="http://www.w3.org/2000/svg"
   xmlns="http://www.w3.org/2000/svg"
   xmlns:xlink="http://www.w3.org/1999/xlink"
   xmlns:sodipodi="http://sodipodi.sourceforge.net/DTD/sodipodi-0.dtd"
   xmlns:inkscape="http://www.inkscape.org/namespaces/inkscape"
   width="64"
   height="64"
   id="svg3352"
   version="1.1"
   inkscape:version="0.91 r"
   viewBox="0 0 64 64"
   sodipodi:docname="cygan.svg">
  <defs
     id="defs3354">
    <linearGradient
       inkscape:collect="always"
       id="linearGradient4468">
      <stop
         style="stop-color:#333333;stop-opacity:1;"
         offset="0"
         id="stop4470" />
      <stop
         style="stop-color:#000000;stop-opacity:1"
         offset="1"
         id="stop4472" />
    </linearGradient>
    <linearGradient
       inkscape:collect="always"
       xlink:href="#linearGradient4468"
       id="linearGradient4474"
       x1="331.33002"
       y1="873.56519"
       x2="332.34018"
       y2="930.63879"
       gradientUnits="userSpaceOnUse"
       gradientTransform="matrix(0.108383,0,0,0.08343797,-9.7866048,-22.609664)" />
    <linearGradient
       inkscape:collect="always"
       xlink:href="#linearGradient4468"
       id="linearGradient4474-6"
       x1="331.33002"
       y1="873.56519"
       x2="332.34018"
       y2="930.63879"
       gradientUnits="userSpaceOnUse"
       gradientTransform="matrix(0.108383,0,0,0.08343797,0.60065006,-22.636088)" />
  </defs>
  <sodipodi:namedview
     id="base"
     pagecolor="#ffffff"
     bordercolor="#666666"
     borderopacity="1.0"
     inkscape:pageopacity="0.0"
     inkscape:pageshadow="2"
     inkscape:zoom="11.313709"
     inkscape:cx="15.279432"
     inkscape:cy="29.313651"
     inkscape:current-layer="layer10"
     showgrid="true"
     inkscape:document-units="px"
     inkscape:grid-bbox="true"
     inkscape:window-width="1366"
     inkscape:window-height="715"
     inkscape:window-x="0"
     inkscape:window-y="0"
     inkscape:window-maximized="1" />
  <metadata
     id="metadata3357">
    <rdf:RDF>
      <cc:Work
         rdf:about="">
        <dc:format>image/svg+xml</dc:format>
        <dc:type
           rdf:resource="http://purl.org/dc/dcmitype/StillImage" />
        <dc:title />
      </cc:Work>
    </rdf:RDF>
  </metadata>
  <g
     id="layer1"
     inkscape:label="body"
     inkscape:groupmode="layer">
    <path
       style="color:#000000;clip-rule:nonzero;display:inline;overflow:visible;visibility:visible;opacity:1;isolation:auto;mix-blend-mode:normal;color-interpolation:sRGB;color-interpolation-filters:linearRGB;solid-color:#000000;solid-opacity:1;fill:#214478;fill-opacity:1;fill-rule:evenodd;stroke:#000000;stroke-width:0.09534839;stroke-linecap:butt;stroke-linejoin:bevel;stroke-miterlimit:4;stroke-dasharray:none;stroke-dashoffset:0;stroke-opacity:0;color-rendering:auto;image-rendering:auto;shape-rendering:auto;text-rendering:auto;enable-background:accumulate"
       d="m 25.629238,42.275665 c 1.658854,-2.476824 9.403524,-3.052178 11.184759,-0.115969 0.855467,2.884183 -0.625141,6.130644 -2.202177,7.707626 -1.936008,1.481142 -4.173309,2.313588 -6.722447,0.11597 -1.82609,-1.815586 -3.011749,-5.249224 -2.260135,-7.707627 z"
       id="rect3348"
       inkscape:connector-curvature="0"
       sodipodi:nodetypes="ccccc" />
  </g>
  <g
     inkscape:groupmode="layer"
     id="layer7"
     inkscape:label="head">
    <path
       style="color:#000000;clip-rule:nonzero;display:inline;overflow:visible;visibility:visible;opacity:1;isolation:auto;mix-blend-mode:normal;color-interpolation:sRGB;color-interpolation-filters:linearRGB;solid-color:#000000;solid-opacity:1;fill:#d38d5f;fill-opacity:1;fill-rule:evenodd;stroke:#000000;stroke-width:0.16815753;stroke-linecap:butt;stroke-linejoin:bevel;stroke-miterlimit:4;stroke-dasharray:none;stroke-dashoffset:0;stroke-opacity:0;color-rendering:auto;image-rendering:auto;shape-rendering:auto;text-rendering:auto;enable-background:accumulate"
       d="M 31.476562 13.419922 A 18.039188 15.228548 0 0 0 13.4375 28.648438 A 18.039188 15.228548 0 0 0 31.476562 43.876953 A 18.039188 15.228548 0 0 0 49.515625 28.648438 A 18.039188 15.228548 0 0 0 31.476562 13.419922 z "
       id="path4597" />
  </g>
  <g
     inkscape:groupmode="layer"
     id="layer11"
     inkscape:label="usmiech">
    <path
       style="fill:#550000"
       d="m 28.615726,35.119106 5.701048,0.132583 c -0.213062,1.230139 -0.663456,2.430611 -1.347922,3.601825 -0.576884,0.588809 -1.820437,0.778821 -2.916816,0.08839 -0.622923,-1.197378 -1.465606,-3.117099 -1.43631,-3.822798 z"
       id="rect3383"
       inkscape:connector-curvature="0"
       sodipodi:nodetypes="ccccc" />
    <path
       style="fill:#ffffff"
       d="m 29.002426,35.119106 1.557844,0 0.03315,1.336874 c -0.51367,0.09996 -1.047972,0.07613 -1.59099,0 z"
       id="rect3398"
       inkscape:connector-curvature="0"
       sodipodi:nodetypes="ccccc" />
    <path
       style="fill:#ffffff"
       d="m 32.294895,34.86499 1.723574,0 0,1.568894 c -0.60646,0.159678 -1.175949,0.134498 -1.723574,0 z"
       id="rect3400"
       inkscape:connector-curvature="0"
       sodipodi:nodetypes="ccccc" />
  </g>
  <g
     inkscape:groupmode="layer"
     id="layer13"
     inkscape:label="broda">
    <path
       style="fill:#000000;fill-opacity:1"
       d="M 16.15625,36.75 C 24.881025,41.580623 37.310419,44.50984 47.375,35.6875 47.110261,36.791667 46.051933,37.895833 45.0625,39 37.577506,44.35675 32.750009,46.620636 20.875,41.1875 19.173811,39.964879 17.527636,38.632227 16.15625,36.75 Z"
       id="rect4290"
       inkscape:connector-curvature="0"
       sodipodi:nodetypes="ccccc" />
  </g>
  <g
     inkscape:groupmode="layer"
     id="layer4"
     inkscape:label="was">
    <path
       style="fill:#000000"
       d="m 25.798511,34.0955 c 4.253862,-1.516329 7.675127,-0.971077 10.871422,0.131224 0.529866,0.435911 1.007723,3.258645 1.438928,4.701459 -0.406706,-0.924399 -1.012572,-2.150304 -2.091462,-2.687013 -3.916884,-1.332322 -4.148887,-1.364883 -9.430117,0 -1.037648,0.14321 -1.303798,1.965965 -1.970747,3.055745 0.314703,-1.731744 0.214085,-4.105059 1.181976,-5.201415 z"
       id="rect3379"
       inkscape:connector-curvature="0"
       sodipodi:nodetypes="ccccccc" />
  </g>
  <g
     inkscape:groupmode="layer"
     id="layer8"
     inkscape:label="eyeL">
    <ellipse
       style="color:#000000;clip-rule:nonzero;display:inline;overflow:visible;visibility:visible;opacity:1;isolation:auto;mix-blend-mode:normal;color-interpolation:sRGB;color-interpolation-filters:linearRGB;solid-color:#000000;solid-opacity:1;fill:#ffffff;fill-opacity:1;fill-rule:evenodd;stroke:#000000;stroke-width:1.71497071;stroke-linecap:butt;stroke-linejoin:bevel;stroke-miterlimit:4;stroke-dasharray:none;stroke-dashoffset:0;stroke-opacity:0;color-rendering:auto;image-rendering:auto;shape-rendering:auto;text-rendering:auto;enable-background:accumulate"
       id="path3655"
       cx="35.579273"
       cy="12.28575"
       rx="5.8629074"
       ry="6.6602631"
       transform="matrix(0.88715516,0.46147125,-0.46147125,0.88715516,0,0)" />
    <ellipse
       style="color:#000000;clip-rule:nonzero;display:inline;overflow:visible;visibility:visible;opacity:1;isolation:auto;mix-blend-mode:normal;color-interpolation:sRGB;color-interpolation-filters:linearRGB;solid-color:#000000;solid-opacity:1;fill:#000000;fill-opacity:1;fill-rule:evenodd;stroke:#000000;stroke-width:1.37650764;stroke-linecap:butt;stroke-linejoin:bevel;stroke-miterlimit:4;stroke-dasharray:none;stroke-dashoffset:0;stroke-opacity:0;color-rendering:auto;image-rendering:auto;shape-rendering:auto;text-rendering:auto;enable-background:accumulate"
       id="path3676"
       cx="26.383369"
       cy="27.515152"
       rx="1.7663507"
       ry="1.6332176" />
  </g>
  <g
     inkscape:groupmode="layer"
     id="layer9"
     inkscape:label="eyeP">
    <ellipse
       style="color:#000000;clip-rule:nonzero;display:inline;overflow:visible;visibility:visible;opacity:1;isolation:auto;mix-blend-mode:normal;color-interpolation:sRGB;color-interpolation-filters:linearRGB;solid-color:#000000;solid-opacity:1;fill:#ffffff;fill-opacity:1;fill-rule:evenodd;stroke:#000000;stroke-width:1.71497071;stroke-linecap:butt;stroke-linejoin:bevel;stroke-miterlimit:4;stroke-dasharray:none;stroke-dashoffset:0;stroke-opacity:0;color-rendering:auto;image-rendering:auto;shape-rendering:auto;text-rendering:auto;enable-background:accumulate"
       id="path3655-0"
       cx="-19.664658"
       cy="40.745247"
       rx="5.8629074"
       ry="6.6602631"
       transform="matrix(-0.88715516,0.46147125,0.46147125,0.88715516,0,0)" />
    <path
       style="color:#000000;clip-rule:nonzero;display:inline;overflow:visible;visibility:visible;opacity:1;isolation:auto;mix-blend-mode:normal;color-interpolation:sRGB;color-interpolation-filters:linearRGB;solid-color:#000000;solid-opacity:1;fill:#000000;fill-opacity:1;fill-rule:evenodd;stroke:#000000;stroke-width:2.17994499;stroke-linecap:butt;stroke-linejoin:bevel;stroke-miterlimit:4;stroke-dasharray:none;stroke-dashoffset:0;stroke-opacity:0;color-rendering:auto;image-rendering:auto;shape-rendering:auto;text-rendering:auto;enable-background:accumulate"
       d="m 30.250066,24.838684 c 0.206245,-0.415241 0.484026,-0.940967 0.751338,-1.356208 -0.621082,2.867916 -0.830059,2.924928 0.164476,6.48126 -0.289528,-0.357133 -0.419844,-0.618718 -0.68844,-1.173565 -1.011244,-1.784005 -0.471678,-3.383349 -0.227374,-3.951487 z"
       id="rect3673"
       inkscape:connector-curvature="0"
       sodipodi:nodetypes="ccccc" />
  </g>
  <g
     inkscape:groupmode="layer"
     id="layer6"
     inkscape:label="legP">
    <path
       style="color:#000000;clip-rule:nonzero;display:inline;overflow:visible;visibility:visible;opacity:1;isolation:auto;mix-blend-mode:normal;color-interpolation:sRGB;color-interpolation-filters:linearRGB;solid-color:#000000;solid-opacity:1;fill:url(#linearGradient4474-6);fill-opacity:1;fill-rule:evenodd;stroke:#000000;stroke-width:0.10432109;stroke-linecap:butt;stroke-linejoin:bevel;stroke-miterlimit:4;stroke-dasharray:none;stroke-dashoffset:0;stroke-opacity:0;color-rendering:auto;image-rendering:auto;shape-rendering:auto;text-rendering:auto;enable-background:accumulate"
       d="m 40.611725,52.685571 c 0,2.204389 -1.979755,2.707203 -4.314751,2.707203 -2.334981,0 -4.140983,-0.502814 -4.140983,-2.707203 0,-2.20439 1.892872,-3.99141 4.227867,-3.99141 2.334982,0 4.227867,1.78702 4.227867,3.99141 z"
       id="path3522-1"
       inkscape:connector-curvature="0"
       sodipodi:nodetypes="sssss" />
    <ellipse
       style="color:#000000;clip-rule:nonzero;display:inline;overflow:visible;visibility:visible;opacity:1;isolation:auto;mix-blend-mode:normal;color-interpolation:sRGB;color-interpolation-filters:linearRGB;solid-color:#000000;solid-opacity:1;fill:#000000;fill-opacity:1;fill-rule:evenodd;stroke:#000000;stroke-width:1.37650764;stroke-linecap:butt;stroke-linejoin:bevel;stroke-miterlimit:4;stroke-dasharray:none;stroke-dashoffset:0;stroke-opacity:0;color-rendering:auto;image-rendering:auto;shape-rendering:auto;text-rendering:auto;enable-background:accumulate"
       id="path3676-9"
       cx="35.727272"
       cy="27.363638"
       rx="1.7663507"
       ry="1.6332176" />
  </g>
  <g
     inkscape:groupmode="layer"
     id="layer5"
     inkscape:label="legL">
    <path
       style="color:#000000;clip-rule:nonzero;display:inline;overflow:visible;visibility:visible;opacity:1;isolation:auto;mix-blend-mode:normal;color-interpolation:sRGB;color-interpolation-filters:linearRGB;solid-color:#000000;solid-opacity:1;fill:url(#linearGradient4474);fill-opacity:1;fill-rule:evenodd;stroke:#000000;stroke-width:0.10432109;stroke-linecap:butt;stroke-linejoin:bevel;stroke-miterlimit:4;stroke-dasharray:none;stroke-dashoffset:0;stroke-opacity:0;color-rendering:auto;image-rendering:auto;shape-rendering:auto;text-rendering:auto;enable-background:accumulate"
       d="m 30.224483,52.711995 c 0,2.204389 -1.979756,2.707216 -4.314751,2.707216 -2.334982,0 -4.140998,-0.502827 -4.140998,-2.707216 0,-2.20439 1.892886,-3.991397 4.227881,-3.991397 2.334982,0 4.227868,1.787007 4.227868,3.991397 z"
       id="path3522"
       inkscape:connector-curvature="0"
       sodipodi:nodetypes="sssss" />
  </g>
  <g
     inkscape:groupmode="layer"
     id="layer3"
     inkscape:label="armP">
    <path
       style="color:#000000;clip-rule:nonzero;display:inline;overflow:visible;visibility:visible;opacity:1;isolation:auto;mix-blend-mode:normal;color-interpolation:sRGB;color-interpolation-filters:linearRGB;solid-color:#000000;solid-opacity:1;fill:#1a1a1a;fill-opacity:1;fill-rule:evenodd;stroke:#000000;stroke-width:0.07559081;stroke-linecap:butt;stroke-linejoin:bevel;stroke-miterlimit:4;stroke-dasharray:none;stroke-dashoffset:0;stroke-opacity:0;color-rendering:auto;image-rendering:auto;shape-rendering:auto;text-rendering:auto;enable-background:accumulate"
       d="m 38.847477,44.815839 c -1.099375,-1.492524 -2.294472,-1.158959 -2.797033,-0.935618 -1.254267,0.725461 -0.910505,2.330076 -0.410651,2.819 0.147454,-0.443749 0.602027,-1.673011 1.474263,-2.06604 0.850388,-0.230685 1.126995,0.03612 1.733421,0.182658 z"
       id="rect3351-6"
       inkscape:connector-curvature="0"
       sodipodi:nodetypes="ccccc" />
    <ellipse
       style="color:#000000;clip-rule:nonzero;display:inline;overflow:visible;visibility:visible;opacity:1;isolation:auto;mix-blend-mode:normal;color-interpolation:sRGB;color-interpolation-filters:linearRGB;solid-color:#000000;solid-opacity:1;fill:#d38d5f;fill-opacity:1;fill-rule:evenodd;stroke:#000000;stroke-width:0.06018847;stroke-linecap:butt;stroke-linejoin:bevel;stroke-miterlimit:4;stroke-dasharray:none;stroke-dashoffset:0;stroke-opacity:0;color-rendering:auto;image-rendering:auto;shape-rendering:auto;text-rendering:auto;enable-background:accumulate"
       id="path3370-3-8-4"
       cx="-37.701958"
       cy="46.472549"
       rx="1.9964268"
       ry="1.9066546"
       transform="scale(-1,1)" />
  </g>
  <g
     inkscape:groupmode="layer"
     id="layer10"
     inkscape:label="brwi">
    <path
       style="color:#000000;clip-rule:nonzero;display:inline;overflow:visible;visibility:visible;opacity:1;isolation:auto;mix-blend-mode:normal;color-interpolation:sRGB;color-interpolation-filters:linearRGB;solid-color:#000000;solid-opacity:1;fill:#000000;fill-opacity:1;fill-rule:evenodd;stroke:#000000;stroke-width:1.66199994;stroke-linecap:butt;stroke-linejoin:bevel;stroke-miterlimit:4;stroke-dasharray:none;stroke-dashoffset:0;stroke-opacity:0;color-rendering:auto;image-rendering:auto;shape-rendering:auto;text-rendering:auto;enable-background:accumulate"
       d="m 34.193909,15.576472 c 3.516151,-0.675328 5.34657,0.570794 7.618681,2.677891 -0.0048,0.543837 -0.187537,0.998304 -0.483647,1.395858 -3.240358,-0.64702 -5.564453,-1.515276 -8.104329,-2.33143 0,0 0.378166,-1.16406 0.969295,-1.742319 z"
       id="rect3708"
       inkscape:connector-curvature="0"
       sodipodi:nodetypes="ccccc" />
    <path
       style="color:#000000;clip-rule:nonzero;display:inline;overflow:visible;visibility:visible;opacity:1;isolation:auto;mix-blend-mode:normal;color-interpolation:sRGB;color-interpolation-filters:linearRGB;solid-color:#000000;solid-opacity:1;fill:#000000;fill-opacity:1;fill-rule:evenodd;stroke:#000000;stroke-width:1.66199994;stroke-linecap:butt;stroke-linejoin:bevel;stroke-miterlimit:4;stroke-dasharray:none;stroke-dashoffset:0;stroke-opacity:0;color-rendering:auto;image-rendering:auto;shape-rendering:auto;text-rendering:auto;enable-background:accumulate"
       d="m 27.931091,17.156017 c -2.844211,-0.600209 -5.188095,-0.342042 -7.618681,2.677891 0.0048,0.543837 0.187537,0.998304 0.483647,1.395858 3.240358,-0.64702 5.564453,-1.515276 8.104329,-2.33143 -0.225615,-1.179175 -0.378166,-1.131918 -0.969295,-1.742319 z"
       id="rect3708-7"
       inkscape:connector-curvature="0"
       sodipodi:nodetypes="ccccc" />
    <ellipse
       style="fill:#9c9c00;fill-opacity:1"
       id="path4369"
       cx="49.276505"
       cy="30.854368"
       rx="1.5467961"
       ry="2.3864853" />
    <ellipse
       style="fill:#ffff11;fill-opacity:1"
       id="path4371"
       cx="49.319138"
       cy="30.798197"
       rx="0.99884182"
       ry="1.6474223" />
    <path
       style="fill:#c8beb7;fill-opacity:1"
       d="m 39.449079,42.519368 c -4.675417,0.886996 -5.617641,2.575008 -5.617641,5.490927 0,2.915917 2.214564,4.482419 4.223789,4.984072 1.505043,0.231359 2.445258,0.327338 2.526356,0.03961 -2.225613,-1.001552 -4.130052,-2.805558 -4.131395,-4.981432 -0.0091,-4.111447 3.167334,-4.891707 6.763705,-4.170269 0.412084,0.0092 0.956335,0.350943 0.779805,0.149538 -0.37224,-0.424694 -1.890627,-1.566779 -4.544619,-1.512438 z"
       id="path4387"
       inkscape:connector-curvature="0"
       sodipodi:nodetypes="csccccsc" />
    <path
       style="fill:#6c5d53;fill-opacity:1"
       d="m 42.038241,43.694654 c 0.786722,0.929831 1.46884,2.000964 1.471376,3.746673 5.01e-4,2.100918 -2.01914,5.000069 -3.481986,5.760193 l 1.517929,-0.205918 c 2.732129,-0.971472 4.456098,-2.835404 4.456098,-5.343094 0.04054,-2.32905 -1.028711,-3.888644 -3.963417,-3.957854 z"
       id="path4392"
       inkscape:connector-curvature="0"
       sodipodi:nodetypes="cccccc" />
    <path
       style="fill:#484537;fill-opacity:1"
       d="m 42.108257,43.202395 c -0.663848,-0.0193 -1.726823,-0.119375 -2.421147,0.0645 0,0 -0.04982,-0.324188 0.172041,-0.586437 0.271565,-0.320951 1.2965,-0.384268 1.756664,-0.111684 0.417307,0.247192 0.492434,0.63362 0.492442,0.633617 z"
       id="path4397-2"
       inkscape:connector-curvature="0"
       sodipodi:nodetypes="sssss"
       inkscape:transform-center-x="0.96780207"
       inkscape:transform-center-y="-0.16532732" />
    <path
       style="fill:#484537;fill-opacity:1"
       d="m 37.383508,43.931296 c -0.649145,0.362664 -1.428366,1.060907 -1.491357,1.838786 0,0 -0.381968,-0.464945 -0.403406,-0.807787 -0.02621,-0.419605 0.505323,-1.062829 1.026094,-1.184679 0.47227,-0.110508 0.868673,0.15368 0.868669,0.15368 z"
       id="path4397-2-8"
       inkscape:connector-curvature="0"
       sodipodi:nodetypes="sssss"
       inkscape:transform-center-x="0.67370198"
       inkscape:transform-center-y="0.76618742" />
    <path
       style="fill:#484537;fill-opacity:1"
       d="m 35.415254,47.765716 c 0.0088,0.711281 0.145825,1.770314 0.598448,2.346908 0,0 -0.299111,0.108102 -0.609967,-0.03806 -0.412261,-0.193847 -0.841891,-1.179387 -0.497484,-1.688445 0.271789,-0.401724 0.509003,-0.620411 0.509003,-0.620402 z"
       id="path4397-2-2"
       inkscape:connector-curvature="0"
       sodipodi:nodetypes="sssss"
       inkscape:transform-center-x="-0.1668783"
       inkscape:transform-center-y="0.91089057" />
    <path
       style="fill:#484537;fill-opacity:1"
       d="m 36.90911,51.245219 c 0.366176,0.388726 0.979903,0.904536 1.523009,0.993347 0,0 -0.110426,0.211702 -0.356518,0.288814 -0.326367,0.102264 -1.064501,-0.224286 -1.132709,-0.680645 -0.05383,-0.360133 -0.03379,-0.601522 -0.03377,-0.601516 z"
       id="path4397-2-2-5"
       inkscape:connector-curvature="0"
       sodipodi:nodetypes="sssss"
       inkscape:transform-center-x="-0.71876646"
       inkscape:transform-center-y="0.4007633" />
  </g>
  <g
     inkscape:groupmode="layer"
     id="layer2"
     inkscape:label="armL">
    <path
       style="color:#000000;clip-rule:nonzero;display:inline;overflow:visible;visibility:visible;opacity:1;isolation:auto;mix-blend-mode:normal;color-interpolation:sRGB;color-interpolation-filters:linearRGB;solid-color:#000000;solid-opacity:1;fill:#1a1a1a;fill-opacity:1;fill-rule:evenodd;stroke:#000000;stroke-width:0.07559081;stroke-linecap:butt;stroke-linejoin:bevel;stroke-miterlimit:4;stroke-dasharray:none;stroke-dashoffset:0;stroke-opacity:0;color-rendering:auto;image-rendering:auto;shape-rendering:auto;text-rendering:auto;enable-background:accumulate"
       d="m 24.768758,42.996986 c 1.633838,0.875688 1.473815,2.106101 1.324309,2.635323 -0.539515,1.344789 -2.176726,1.232975 -2.731833,0.80782 0.418236,-0.209128 1.570259,-0.834079 1.835106,-1.753384 0.107267,-0.874569 -0.1962,-1.110373 -0.427582,-1.689759 z"
       id="rect3351"
       inkscape:connector-curvature="0"
       sodipodi:nodetypes="ccccc" />
    <ellipse
       style="color:#000000;clip-rule:nonzero;display:inline;overflow:visible;visibility:visible;opacity:1;isolation:auto;mix-blend-mode:normal;color-interpolation:sRGB;color-interpolation-filters:linearRGB;solid-color:#000000;solid-opacity:1;fill:#d38d5f;fill-opacity:1;fill-rule:evenodd;stroke:#000000;stroke-width:0.06018847;stroke-linecap:butt;stroke-linejoin:bevel;stroke-miterlimit:4;stroke-dasharray:none;stroke-dashoffset:0;stroke-opacity:0;color-rendering:auto;image-rendering:auto;shape-rendering:auto;text-rendering:auto;enable-background:accumulate"
       id="path3370-3-8"
       cx="47.230808"
       cy="-16.738342"
       rx="1.9964268"
       ry="1.9066546"
       transform="matrix(0.14236831,0.98981375,-0.98981375,0.14236831,0,0)" />
  </g>
  <g
     inkscape:groupmode="layer"
     id="layer12"
     inkscape:label="armL_shadow">
    <path
       style="color:#000000;clip-rule:nonzero;display:inline;overflow:visible;visibility:visible;opacity:1;isolation:auto;mix-blend-mode:normal;color-interpolation:sRGB;color-interpolation-filters:linearRGB;solid-color:#000000;solid-opacity:1;fill:#a05a2c;fill-opacity:1;fill-rule:evenodd;stroke:#000000;stroke-width:1.69127417;stroke-linecap:butt;stroke-linejoin:bevel;stroke-miterlimit:4;stroke-dasharray:none;stroke-dashoffset:0;stroke-opacity:0;color-rendering:auto;image-rendering:auto;shape-rendering:auto;text-rendering:auto;enable-background:accumulate"
       d="m 21.774225,45.538222 c -0.531938,-0.468599 -0.726451,-1.787601 0.150392,-2.689833 0.610138,-0.627804 1.842863,-0.89909 2.719977,-0.04594 0.508165,0.494279 -1.036263,-0.04362 -1.745214,0.994143 -1.420791,2.079763 -0.590135,2.212944 -1.125155,1.74163 z"
       id="path3802"
       inkscape:connector-curvature="0"
       sodipodi:nodetypes="sssss" />
    <path
       style="color:#000000;clip-rule:nonzero;display:inline;overflow:visible;visibility:visible;opacity:1;isolation:auto;mix-blend-mode:normal;color-interpolation:sRGB;color-interpolation-filters:linearRGB;solid-color:#000000;solid-opacity:1;fill:#a05a2c;fill-opacity:1;fill-rule:evenodd;stroke:#000000;stroke-width:1.69127417;stroke-linecap:butt;stroke-linejoin:bevel;stroke-miterlimit:4;stroke-dasharray:none;stroke-dashoffset:0;stroke-opacity:0;color-rendering:auto;image-rendering:auto;shape-rendering:auto;text-rendering:auto;enable-background:accumulate"
       d="m 38.909599,44.823235 c 0.629877,0.325266 1.139129,1.557445 0.507855,2.645733 -0.439262,0.757267 -1.569091,1.320022 -2.627257,0.705627 -0.613058,-0.355955 1.015795,-0.209539 1.45127,-1.388493 0.872724,-2.362713 0.0346,-2.290018 0.668132,-1.962867 z"
       id="path3802-5"
       inkscape:connector-curvature="0"
       sodipodi:nodetypes="sssss" />
  </g>
</svg>
