<?xml version="1.0" encoding="UTF-8" standalone="no"?>
<!-- Created with Inkscape (http://www.inkscape.org/) -->

<svg
   xmlns:dc="http://purl.org/dc/elements/1.1/"
   xmlns:cc="http://creativecommons.org/ns#"
   xmlns:rdf="http://www.w3.org/1999/02/22-rdf-syntax-ns#"
   xmlns:svg="http://www.w3.org/2000/svg"
   xmlns="http://www.w3.org/2000/svg"
   xmlns:sodipodi="http://sodipodi.sourceforge.net/DTD/sodipodi-0.dtd"
   xmlns:inkscape="http://www.inkscape.org/namespaces/inkscape"
   width="48"
   height="48"
   id="svg3352"
   version="1.1"
   inkscape:version="0.91 r"
   viewBox="0 0 48 48"
   sodipodi:docname="czaszka.svg">
  <defs
     id="defs3354" />
  <sodipodi:namedview
     id="base"
     pagecolor="#ffffff"
     bordercolor="#666666"
     borderopacity="1.0"
     inkscape:pageopacity="0.0"
     inkscape:pageshadow="2"
     inkscape:zoom="8"
     inkscape:cx="12.929352"
     inkscape:cy="33.597255"
     inkscape:current-layer="layer1"
     showgrid="true"
     inkscape:grid-bbox="true"
     inkscape:document-units="px"
     inkscape:window-width="1366"
     inkscape:window-height="715"
     inkscape:window-x="0"
     inkscape:window-y="0"
     inkscape:window-maximized="1" />
  <metadata
     id="metadata3357">
    <rdf:RDF>
      <cc:Work
         rdf:about="">
        <dc:format>image/svg+xml</dc:format>
        <dc:type
           rdf:resource="http://purl.org/dc/dcmitype/StillImage" />
        <dc:title></dc:title>
      </cc:Work>
    </rdf:RDF>
  </metadata>
  <g
     id="layer1"
     inkscape:label="Layer 1"
     inkscape:groupmode="layer">
    <path
       style="fill:#ffffff"
       d="M 25.715872,0.46873508 C 24.875548,0.48532734 24.012283,0.53927962 23.127434,0.63446805 18.584434,1.1231769 8.5066536,3.3169477 5.8189401,7.8784812 4.3305032,10.404628 4.5021204,14.884561 4.5021204,17.982133 c 0,3.635227 2.4462983,4.511361 5.5810746,6.435858 1.15839,0.711164 -3.9758689,2.0056 -0.1326446,3.751167 0.5406496,0.24556 -2.9066888,1.595143 -2.6062789,3.123982 0,0 1.2515941,1.965581 4.2354845,2.520017 3.12184,0.164945 3.602219,-0.697499 4.649076,-0.980098 -0.917637,-0.05404 -2.488959,-1.09805 -2.039837,-1.965921 0.873012,-1.686992 4.015679,-1.627251 4.487651,-1.627251 0.571631,0 -1.026912,1.929504 -0.138186,1.994872 0.561711,0.04132 -0.769519,1.59322 -0.769519,1.593221 1.301545,0.531426 1.784536,8.96318 1.927102,11.871583 0.04518,0.921849 1.901231,0.650804 1.830887,0.304346 0.08835,0.01319 0.258204,-0.561603 0.267829,-2.628622 0.01333,-2.867194 0.397441,-8.47689 0.52036,-8.443401 0.142867,0.03893 0.315126,5.438736 0.268857,8.169014 -0.03723,2.19803 0.07206,4.192025 0.106247,4.292766 0.260882,0.613997 1.379189,0.481977 1.712095,0.04322 0.08043,-0.13115 0.692955,-12.399045 0.867303,-12.414598 0.107713,-0.0096 0.519788,5.406679 0.47764,8.177696 -0.03474,2.283924 -0.02685,4.297542 0.04071,4.345383 0.803231,0.568724 1.210173,0.655036 1.637297,-0.129565 0.0171,-0.03141 0.07103,-2.478199 0.184224,-4.827925 0.122839,-2.549967 0.622575,-7.441497 0.658675,-7.463396 0.03742,-0.02267 0.400432,5.403118 0.33448,8.138968 -0.05001,2.075221 0.111476,2.641383 0.111476,2.641383 0.792974,1.007317 1.822954,0.31801 1.80799,-0.226759 -0.01979,-0.720631 -0.03237,0.609071 0.03916,-0.751266 0.07394,-1.405937 0.105802,-6.594251 0.494183,-9.678773 0.152893,-0.02259 1.41874,-0.309695 1.307662,-2.584304 0,0 -1.201542,0.822443 -1.027423,-0.456134 0.131757,-0.967438 0.928102,-1.81703 0.928102,-1.81703 3.270702,-1.096395 2.83633,1.424003 1.3349,4.200566 -0.980541,1.211439 10.533649,-1.678894 9.940931,-4.351231 -0.26654,-1.201765 -2.68364,-0.797458 -2.446807,-2.612554 0.436038,-3.341816 2.525996,-8.594122 3.082624,-11.046822 C 45.785227,8.487382 38.320732,0.21976754 25.715872,0.46873508 Z M 35.367526,13.166854 c 0.680868,-0.02237 1.887769,0.396846 2.639666,0.644849 0.847676,0.530726 2.711694,2.99337 -1.76279,5.845836 -4.608853,1.69096 -5.396854,1.96087 -9.076111,0.201891 0.377313,-2.124635 1.066063,-3.248455 2.534199,-4.459709 1.894533,-0.916773 3.622429,-2.16577 5.665036,-2.232867 z M 12.57781,13.287395 c 2.042606,0.0671 4.267699,1.48484 6.162233,2.401613 1.468137,1.211254 2.654082,2.497794 3.031397,4.622429 -3.679259,1.758972 -5.238666,1.600557 -9.847519,-0.0904 -4.4744847,-2.85246 -2.83044,-5.86654 -1.9827634,-6.397268 0.7518964,-0.247993 1.9557834,-0.558733 2.6366524,-0.536377 z m 12.463079,8.599999 c -0.189765,0.787407 -0.01482,2.739945 -0.02713,3.844994 -0.589186,0.442678 -1.338363,0.680384 -1.594043,1.551857 l 0.328449,2.058094 c -0.91139,-1.207202 -2.027968,-0.81793 -2.178623,-3.242327 0.154494,-0.48996 0.724247,-0.839493 1.811002,-1.009462 l 0.01809,-1.488579 c 0.246196,-0.327735 0.558771,-0.47615 0.967274,-0.533357 0.276079,-0.243235 0.56495,-0.849624 0.674982,-1.18122 z m 0.629783,0.01809 c 0.110039,0.331596 0.214603,0.67456 0.539383,0.684022 0.408504,0.05721 0.808467,0.127283 1.054661,0.455011 l 0.0211,1.48858 c 1.086755,0.169967 1.656507,0.5195 1.811004,1.00946 -0.150656,2.424397 -1.270247,2.035126 -2.181641,3.242329 l 0.328446,-2.058103 c -0.255681,-0.871473 -1.001844,-1.109179 -1.591031,-1.551858 -0.0123,-1.105048 0.20784,-2.482041 0.01809,-3.269448 z"
       id="path3362"
       inkscape:connector-curvature="0"
       sodipodi:nodetypes="sssssscccssscscccscccsscscscsscssccsssssccccscccccccccccccccccccccccc" />
  </g>
</svg>
