<?xml version="1.0" encoding="UTF-8" standalone="no"?>
<!-- Created with Inkscape (http://www.inkscape.org/) -->

<svg
   xmlns:dc="http://purl.org/dc/elements/1.1/"
   xmlns:cc="http://creativecommons.org/ns#"
   xmlns:rdf="http://www.w3.org/1999/02/22-rdf-syntax-ns#"
   xmlns:svg="http://www.w3.org/2000/svg"
   xmlns="http://www.w3.org/2000/svg"
   xmlns:sodipodi="http://sodipodi.sourceforge.net/DTD/sodipodi-0.dtd"
   xmlns:inkscape="http://www.inkscape.org/namespaces/inkscape"
   width="48"
   height="48"
   id="svg3352"
   version="1.1"
   inkscape:version="0.91 r"
   viewBox="0 0 48 48"
   sodipodi:docname="czaszka.svg">
  <defs
     id="defs3354" />
  <sodipodi:namedview
     id="base"
     pagecolor="#ffffff"
     bordercolor="#666666"
     borderopacity="1.0"
     inkscape:pageopacity="0.0"
     inkscape:pageshadow="2"
     inkscape:zoom="5.6568543"
     inkscape:cx="-22.137352"
     inkscape:cy="26.429278"
     inkscape:current-layer="layer2"
     showgrid="true"
     inkscape:grid-bbox="true"
     inkscape:document-units="px"
     inkscape:window-width="1366"
     inkscape:window-height="715"
     inkscape:window-x="0"
     inkscape:window-y="0"
     inkscape:window-maximized="1" />
  <metadata
     id="metadata3357">
    <rdf:RDF>
      <cc:Work
         rdf:about="">
        <dc:format>image/svg+xml</dc:format>
        <dc:type
           rdf:resource="http://purl.org/dc/dcmitype/StillImage" />
        <dc:title />
      </cc:Work>
    </rdf:RDF>
  </metadata>
  <g
     inkscape:groupmode="layer"
     id="layer2"
     inkscape:label="bg" />
  <g
     id="layer1"
     inkscape:label="Layer 1"
     inkscape:groupmode="layer">
    <path
       style="fill:#000000;opacity:0.97"
       d="M 25.715872,0.46873508 C 24.875548,0.48532734 24.012283,0.53927962 23.127434,0.63446805 18.584434,1.1231769 8.5066536,3.3169477 5.8189401,7.8784812 4.3305032,10.404628 4.5021204,14.884561 4.5021204,17.982133 c 0,3.635227 2.4462983,4.511361 5.5810746,6.435858 1.15839,0.711164 -3.9758689,2.0056 -0.1326446,3.751167 0.5406496,0.24556 -2.9066888,1.595143 -2.6062789,3.123982 0,0 1.2515941,1.965581 4.2354845,2.520017 3.12184,0.164945 3.602219,-0.697499 4.649076,-0.980098 -0.917637,-0.05404 -2.488959,-1.09805 -2.039837,-1.965921 0.873012,-1.686992 4.015679,-1.627251 4.487651,-1.627251 0.571631,0 -1.026912,1.929504 -0.138186,1.994872 0.561711,0.04132 -0.769519,1.59322 -0.769519,1.593221 1.301545,0.531426 1.784536,8.96318 1.927102,11.871583 0.04518,0.921849 1.901231,0.650804 1.830887,0.304346 0.08835,0.01319 0.258204,-0.561603 0.267829,-2.628622 0.01333,-2.867194 0.397441,-8.47689 0.52036,-8.443401 0.142867,0.03893 0.315126,5.438736 0.268857,8.169014 -0.03723,2.19803 0.07206,4.192025 0.106247,4.292766 0.260882,0.613997 1.379189,0.481977 1.712095,0.04322 0.08043,-0.13115 0.692955,-12.399045 0.867303,-12.414598 0.107713,-0.0096 0.519788,5.406679 0.47764,8.177696 -0.03474,2.283924 -0.02685,4.297542 0.04071,4.345383 0.803231,0.568724 1.210173,0.655036 1.637297,-0.129565 0.0171,-0.03141 0.07103,-2.478199 0.184224,-4.827925 0.122839,-2.549967 0.622575,-7.441497 0.658675,-7.463396 0.03742,-0.02267 0.400432,5.403118 0.33448,8.138968 -0.05001,2.075221 0.111476,2.641383 0.111476,2.641383 0.792974,1.007317 1.822954,0.31801 1.80799,-0.226759 -0.01979,-0.720631 -0.03237,0.609071 0.03916,-0.751266 0.07394,-1.405937 0.105802,-6.594251 0.494183,-9.678773 0.152893,-0.02259 1.41874,-0.309695 1.307662,-2.584304 0,0 -1.201542,0.822443 -1.027423,-0.456134 0.131757,-0.967438 0.928102,-1.81703 0.928102,-1.81703 3.270702,-1.096395 2.83633,1.424003 1.3349,4.200566 -0.980541,1.211439 10.533649,-1.678894 9.940931,-4.351231 -0.26654,-1.201765 -2.68364,-0.797458 -2.446807,-2.612554 0.436038,-3.341816 2.525996,-8.594122 3.082624,-11.046822 C 45.785227,8.487382 38.320732,0.21976754 25.715872,0.46873508 Z M 35.367526,13.166854 c 0.680868,-0.02237 1.887769,0.396846 2.639666,0.644849 0.847676,0.530726 2.711694,2.99337 -1.76279,5.845836 -4.608853,1.69096 -5.396854,1.96087 -9.076111,0.201891 0.377313,-2.124635 1.066063,-3.248455 2.534199,-4.459709 1.894533,-0.916773 3.622429,-2.16577 5.665036,-2.232867 z M 12.57781,13.287395 c 2.042606,0.0671 4.267699,1.48484 6.162233,2.401613 1.468137,1.211254 2.654082,2.497794 3.031397,4.622429 -3.679259,1.758972 -5.238666,1.600557 -9.847519,-0.0904 -4.4744847,-2.85246 -2.83044,-5.86654 -1.9827634,-6.397268 0.7518964,-0.247993 1.9557834,-0.558733 2.6366524,-0.536377 z m 12.463079,8.599999 c -0.189765,0.787407 -0.01482,2.739945 -0.02713,3.844994 -0.589186,0.442678 -1.338363,0.680384 -1.594043,1.551857 l 0.328449,2.058094 c -0.91139,-1.207202 -2.027968,-0.81793 -2.178623,-3.242327 0.154494,-0.48996 0.724247,-0.839493 1.811002,-1.009462 l 0.01809,-1.488579 c 0.246196,-0.327735 0.558771,-0.47615 0.967274,-0.533357 0.276079,-0.243235 0.56495,-0.849624 0.674982,-1.18122 z m 0.629783,0.01809 c 0.110039,0.331596 0.214603,0.67456 0.539383,0.684022 0.408504,0.05721 0.808467,0.127283 1.054661,0.455011 l 0.0211,1.48858 c 1.086755,0.169967 1.656507,0.5195 1.811004,1.00946 -0.150656,2.424397 -1.270247,2.035126 -2.181641,3.242329 l 0.328446,-2.058103 c -0.255681,-0.871473 -1.001844,-1.109179 -1.591031,-1.551858 -0.0123,-1.105048 0.20784,-2.482041 0.01809,-3.269448 z"
       id="path3362"
       inkscape:connector-curvature="0"
       sodipodi:nodetypes="sssssscccssscscccscccsscscscsscssccsssssccccscccccccccccccccccccccccc" />
    <path
       style="opacity:0.97000002;fill:#ffffff"
       d="m 24.756362,2.2427117 c -0.79517,0.0157 -1.612047,0.066754 -2.449349,0.1568273 C 18.008128,2.8619874 8.4718732,4.9378768 5.9285829,9.2542983 4.5201266,11.644704 4.682522,15.883909 4.682522,18.815034 c 0,3.439889 2.3148474,4.268945 5.2811778,6.09003 1.0961442,0.672949 -3.7622272,1.897829 -0.125517,3.549599 0.5115982,0.232365 -2.750499,1.509429 -2.4662315,2.956116 0,0 1.1843402,1.859962 4.0078917,2.384605 2.95409,0.156082 3.408656,-0.660019 4.399261,-0.927433 -0.868329,-0.05114 -2.355217,-1.039046 -1.930228,-1.860283 0.826101,-1.596342 3.799898,-1.539811 4.246509,-1.539811 0.540914,0 -0.971731,1.825823 -0.130761,1.887678 0.531528,0.0391 -0.728169,1.507609 -0.728169,1.50761 1.231607,0.50287 1.688645,8.481547 1.82355,11.233669 0.04275,0.872313 1.79907,0.615833 1.732506,0.287992 0.0836,0.01248 0.244329,-0.531426 0.253437,-2.487374 0.01261,-2.713127 0.376085,-8.021388 0.492399,-7.989699 0.13519,0.03684 0.298193,5.146488 0.25441,7.730056 -0.03523,2.079919 0.06819,3.966768 0.100538,4.062096 0.246863,0.581004 1.305079,0.456078 1.620096,0.0409 0.07611,-0.124102 0.655719,-11.732787 0.820699,-11.747504 0.101925,-0.0091 0.491857,5.116153 0.451974,7.73827 -0.03287,2.161199 -0.02541,4.066616 0.03852,4.111886 0.760069,0.538164 1.145144,0.619838 1.549317,-0.122603 0.01618,-0.02972 0.06721,-2.345034 0.174325,-4.568498 0.116238,-2.412946 0.589121,-7.041631 0.623281,-7.062354 0.03541,-0.02145 0.378915,5.112784 0.316507,7.701624 -0.04732,1.96371 0.105486,2.49945 0.105486,2.49945 0.750364,0.953189 1.724998,0.300921 1.710838,-0.214575 -0.01873,-0.681908 -0.03063,0.576343 0.03706,-0.710897 0.06997,-1.330389 0.100117,-6.239911 0.467628,-9.158688 0.144678,-0.02138 1.342505,-0.293053 1.237396,-2.445437 0,0 -1.136978,0.778249 -0.972215,-0.431624 0.124677,-0.915453 0.878231,-1.719393 0.878231,-1.719393 3.094952,-1.03748 2.683921,1.347485 1.263169,3.974851 -0.927852,1.146342 9.967628,-1.58868 9.40676,-4.11742 -0.252218,-1.137188 -2.539436,-0.754607 -2.315329,-2.472169 0.412607,-3.162245 2.390262,-8.132321 2.91698,-10.453226 C 43.747298,9.8304803 36.683905,2.0071223 24.756362,2.2427117 Z m 9.133026,12.0157903 c 0.644282,-0.02117 1.786331,0.375521 2.497825,0.610198 0.802126,0.502208 2.565982,2.832523 -1.668067,5.531713 -4.361199,1.600096 -5.106857,1.855503 -8.58841,0.191042 0.357038,-2.010469 1.008778,-3.073901 2.398025,-4.220068 1.792731,-0.867511 3.427779,-2.049394 5.360627,-2.112885 z m -21.565121,0.114064 c 1.932849,0.06349 4.038376,1.405052 5.831108,2.272563 1.389247,1.146168 2.511467,2.363576 2.868507,4.374045 -3.481556,1.664454 -4.957168,1.514551 -9.318367,-0.08554 C 7.4714651,18.23445 9.0271677,15.38233 9.8292947,14.880121 10.540788,14.645454 11.679985,14.351411 12.324267,14.372566 Z m 11.793382,8.137881 c -0.179568,0.745096 -0.01402,2.592715 -0.02567,3.638385 -0.557527,0.418891 -1.266447,0.643824 -1.508388,1.468469 l 0.3108,1.947503 c -0.862417,-1.142334 -1.918996,-0.773979 -2.061556,-3.068102 0.146193,-0.463632 0.68533,-0.794383 1.713689,-0.955219 l 0.01712,-1.408591 c 0.232966,-0.310124 0.528745,-0.450564 0.915298,-0.504697 0.261244,-0.230165 0.534592,-0.80397 0.638712,-1.117748 z m 0.595942,0.01712 c 0.104126,0.313778 0.203071,0.638313 0.510399,0.647266 0.386553,0.05414 0.765024,0.120444 0.997989,0.430562 l 0.01997,1.408591 c 1.028358,0.160834 1.567495,0.491585 1.71369,0.955217 -0.142561,2.294123 -1.201991,1.92577 -2.064411,3.068104 l 0.310797,-1.947511 c -0.241942,-0.824645 -0.948011,-1.049578 -1.505538,-1.46847 -0.01164,-1.045669 0.196672,-2.34867 0.01712,-3.093766 z"
       id="path3362-2"
       inkscape:connector-curvature="0"
       sodipodi:nodetypes="sssssscccssscscccscccsscscscsscssccsssssccccscccccccccccccccccccccccc" />
  </g>
</svg>
