<?xml version="1.0" encoding="UTF-8" standalone="no"?>
<!-- Created with Inkscape (http://www.inkscape.org/) -->

<svg
   xmlns:dc="http://purl.org/dc/elements/1.1/"
   xmlns:cc="http://creativecommons.org/ns#"
   xmlns:rdf="http://www.w3.org/1999/02/22-rdf-syntax-ns#"
   xmlns:svg="http://www.w3.org/2000/svg"
   xmlns="http://www.w3.org/2000/svg"
   xmlns:sodipodi="http://sodipodi.sourceforge.net/DTD/sodipodi-0.dtd"
   xmlns:inkscape="http://www.inkscape.org/namespaces/inkscape"
   width="64"
   height="64"
   id="svg3352"
   version="1.1"
   inkscape:version="0.91 r"
   viewBox="0 0 64 64"
   sodipodi:docname="krzak.svg">
  <defs
     id="defs3354" />
  <sodipodi:namedview
     id="base"
     pagecolor="#ffffff"
     bordercolor="#666666"
     borderopacity="1.0"
     inkscape:pageopacity="0.0"
     inkscape:pageshadow="2"
     inkscape:zoom="5.6568543"
     inkscape:cx="76.397864"
     inkscape:cy="32.571736"
     inkscape:current-layer="layer4"
     showgrid="true"
     inkscape:document-units="px"
     inkscape:grid-bbox="true"
     inkscape:window-width="1366"
     inkscape:window-height="715"
     inkscape:window-x="0"
     inkscape:window-y="0"
     inkscape:window-maximized="1" />
  <metadata
     id="metadata3357">
    <rdf:RDF>
      <cc:Work
         rdf:about="">
        <dc:format>image/svg+xml</dc:format>
        <dc:type
           rdf:resource="http://purl.org/dc/dcmitype/StillImage" />
        <dc:title />
      </cc:Work>
    </rdf:RDF>
  </metadata>
  <g
     inkscape:groupmode="layer"
     id="layer4"
     inkscape:label="krzak4"
     style="display:inline" />
  <g
     inkscape:groupmode="layer"
     id="layer3"
     inkscape:label="krzak3"
     style="display:inline">
    <path
       style="color:#000000;clip-rule:nonzero;display:inline;overflow:visible;visibility:visible;opacity:1;isolation:auto;mix-blend-mode:normal;color-interpolation:sRGB;color-interpolation-filters:linearRGB;solid-color:#000000;solid-opacity:1;fill:#005500;fill-opacity:1;fill-rule:evenodd;stroke:#8b0000;stroke-width:0.55077356;stroke-linecap:butt;stroke-linejoin:bevel;stroke-miterlimit:4;stroke-dasharray:none;stroke-dashoffset:0;stroke-opacity:0;color-rendering:auto;image-rendering:auto;shape-rendering:auto;text-rendering:auto;enable-background:accumulate"
       d="m 59.482784,33.698885 c 0,0.795791 3.68133,-1.165005 3.68133,-1.165005 0.575172,-0.479189 -1.109838,5.951948 -4.084439,8.176281 -0.947463,0.708489 1.732931,5.80846 4.491943,2.110909 0.562003,-0.75318 -0.02813,4.326955 -0.475945,5.109578 -0.570594,0.997184 -2.559638,3.670789 -3.38772,5.399168 -0.346679,0.72359 -6.410523,6.078165 -6.410523,6.078165 -8.974598,5.573011 -13.125379,4.707132 -23.301802,4.707132 -16.285301,0 -29.48714725,-13.617807 -29.48714725,-30.416228 0,-1.801257 -0.1689905,-7.752521 0.12211208,-9.467771 0.26325884,-1.551164 0.96123457,1.124684 1.44314567,-0.3361 0.4515396,-1.368733 0.054421,-9.802456 0.5802974,-8.481755 0.9396798,2.359912 2.9716464,0.859145 3.9963217,-0.547027 1.0634274,-1.459348 -1.1255125,-4.373124 1.0610184,-5.9436946 -1.1110218,0.7960974 0.6252768,4.8151396 2.948398,3.4859886 1.246486,-0.713163 2.180173,-7.3324489 2.268059,-5.4949665 0.150484,3.1462565 3.379651,3.7648305 4.779213,1.1248351 0.596785,-1.1257116 2.872413,-7.08953229 2.678336,-5.8512282 -0.35553,2.2684034 2.197685,2.0396138 3.502837,1.7227933 2.139843,-0.5194375 5.955508,-1.7012151 5.546039,-3.41835577 -0.290679,-1.21897151 2.576543,2.84380227 3.563779,2.94678407 1.068163,0.1114348 4.00288,-1.3666811 4.353808,-2.94026505 0.275284,-1.23438484 1.188764,4.05398375 2.338512,4.46668665 0.899341,0.3228186 4.921875,0.2740105 5.042012,-2.1045376 0.08225,-1.6283028 0.420274,4.6923056 1.727364,5.6013833 0.922324,0.6414735 3.374219,1.6870177 3.934868,0.1072732 0.455779,-1.2842562 2.837927,5.6774565 3.498626,4.6096965 0.775754,-1.253704 -0.07928,2.523763 0.719578,3.770475 1.07588,1.67904 3.574036,1.403337 5.942444,-0.05355 1.075134,-0.661344 -2.146222,6.782522 -2.36619,7.865201 -0.188437,0.927498 -0.567451,0.972959 0.510732,2.709367 1.229996,1.980899 4.032113,-2.852058 4.340452,-2.673701 1.329221,0.768873 -1.568428,7.95192 -3.568417,8.065657 -0.342748,0.01947 0.0695,1.550934 0.0466,1.27172 z"
       id="path4273-6"
       inkscape:connector-curvature="0"
       sodipodi:nodetypes="ccssssssssssscssssssssssssssssssssc" />
    <path
       style="color:#000000;clip-rule:nonzero;display:inline;overflow:visible;visibility:visible;opacity:1;isolation:auto;mix-blend-mode:normal;color-interpolation:sRGB;color-interpolation-filters:linearRGB;solid-color:#000000;solid-opacity:1;fill:#002c00;fill-opacity:1;fill-rule:evenodd;stroke:#8b0000;stroke-width:0.31391865;stroke-linecap:butt;stroke-linejoin:bevel;stroke-miterlimit:4;stroke-dasharray:none;stroke-dashoffset:0;stroke-opacity:0;color-rendering:auto;image-rendering:auto;shape-rendering:auto;text-rendering:auto;enable-background:accumulate"
       d="m 27.616574,7.8458044 c 1.910957,5.8749186 8.789633,9.2312776 8.73585,16.5839016 -0.04493,6.14247 -6.87809,-6.655055 -7.192863,-7.717919 -0.98149,-3.314096 3.240797,16.781759 5.948263,13.009573 0.970364,-1.351963 -1.576053,3.283215 -2.840101,5.18206 -1.203563,1.807982 -6.959189,-10.668192 -8.185437,-14.993864 0.682189,4.165144 2.913487,16.324347 4.578902,18.001078 0.743503,0.646495 0.97582,0.896119 1.120978,0.78302 -0.143699,0.218066 -2.381464,0.692323 -2.535192,0.665814 -6.000031,3.518696 -10.731772,-15.300198 -9.818894,-15.993043 7.163177,-5.436624 7.814454,-8.319908 8.896208,-9.678423 0.523127,-0.656966 -7.883829,8.237079 -9.223803,6.894641 -1.106112,-1.108145 -0.306183,-3.084091 -0.426451,-4.527766 L 14.061465,28.079655 C 14.192809,38.5984 17.651853,42.68597 21.745037,45.545496 15.854517,51.911451 12.916676,43.912326 9.230675,39.376301 15.235071,57.973069 23.987174,60.614 32.062697,63.804948 45.007894,60.41406 55.831845,54.292489 56.42167,43.248091 c -2.704341,1.933159 -8.213826,3.888865 -11.481423,2.35944 1.422375,-4.594062 6.153566,-12.245283 6.172242,-18.377103 -0.704696,-5.608507 -1.88004,-11.135605 -8.376754,-15.728882 2.291013,6.279826 4.040201,20.058143 -2.167412,23.677818 C 41.834036,25.40682 39.477782,21.443888 38.395054,19.136032 32.909429,10.903014 30.977965,12.973485 27.616574,7.8458044 Z M 24.238536,19.698619 c -0.183301,-1.11916 -0.288915,-1.728496 -0.20893,-0.926236 0.02261,0.226796 0.104003,0.556098 0.20893,0.926236 z m 7.934655,26.949648 c 0.448444,-5.222231 0.598528,-5.236905 0.928569,-6.340736 1.177881,6.231912 1.64027,12.417716 -1.148753,18.393995 l -3.114508,-1.415592 0.993002,-3.085846 c 0.421334,-1.427051 1.687974,-3.067733 0.962941,-2.880373 -1.257473,0.324951 -1.405453,-7.932579 -1.282595,-6.901338 0.314144,2.636891 2.351154,7.606093 2.661344,2.22989 z"
       id="rect4340"
       inkscape:connector-curvature="0"
       sodipodi:nodetypes="cssssccccssscccccccccccccsccccccssc" />
    <path
       style="color:#000000;clip-rule:nonzero;display:inline;overflow:visible;visibility:visible;opacity:1;isolation:auto;mix-blend-mode:normal;color-interpolation:sRGB;color-interpolation-filters:linearRGB;solid-color:#000000;solid-opacity:1;fill:#22280b;fill-opacity:1;fill-rule:evenodd;stroke:#8b0000;stroke-width:0.36568722;stroke-linecap:butt;stroke-linejoin:bevel;stroke-miterlimit:4;stroke-dasharray:none;stroke-dashoffset:0;stroke-opacity:0;color-rendering:auto;image-rendering:auto;shape-rendering:auto;text-rendering:auto;enable-background:accumulate"
       d="m 31.158381,48.015128 c 0.27247,-3.687098 0.945502,-8.217169 1.71269,-11.241201 2.607891,7.525919 1.31466,16.626898 0.779455,24.567159 l -5.714641,-2.247401 c 0.779038,-2.679123 0.863297,-4.728581 2.756361,-7.377721 -1.82389,1.846708 -2.342908,-4.442921 -1.709476,-9.365282 0.783883,1.993461 1.059388,5.112384 2.175611,5.664446 z"
       id="rect4346"
       inkscape:connector-curvature="0"
       sodipodi:nodetypes="ccccccc" />
  </g>
  <g
     id="layer1"
     inkscape:label="krzak1"
     inkscape:groupmode="layer">
    <path
       style="color:#000000;clip-rule:nonzero;display:inline;overflow:visible;visibility:visible;opacity:1;isolation:auto;mix-blend-mode:normal;color-interpolation:sRGB;color-interpolation-filters:linearRGB;solid-color:#000000;solid-opacity:1;fill:#00411a;fill-opacity:1;fill-rule:evenodd;stroke:#8b0000;stroke-width:0.28557435;stroke-linecap:butt;stroke-linejoin:bevel;stroke-miterlimit:4;stroke-dasharray:none;stroke-dashoffset:0;stroke-opacity:0;color-rendering:auto;image-rendering:auto;shape-rendering:auto;text-rendering:auto;enable-background:accumulate"
       d="m 26.133036,45.24893 c 0,0.490873 1.604455,-0.718618 1.604455,-0.718618 0.25068,-0.29558 -0.483707,3.671377 -1.780143,5.043426 -0.412938,0.437022 0.755273,3.582869 1.957747,1.302086 0.244941,-0.464589 -0.01226,2.669022 -0.207434,3.151772 -0.248684,0.615099 -1.11558,2.264275 -1.476488,3.330402 -0.151095,0.446336 -2.793932,3.749232 -2.793932,3.749232 -3.911445,3.437634 -5.720503,2.90353 -10.155747,2.90353 -7.0977102,0 -12.85154117,-8.399957 -12.85154117,-18.76183 0,-1.11108 -0.0736504,-4.782035 0.0532241,-5.840062 0.11473867,-0.956815 0.41894064,0.693744 0.62897407,-0.20732 0.1967984,-0.844283 0.023714,-6.04651 0.2529146,-5.231853 0.4095459,1.45568 1.2951481,0.529951 1.7417381,-0.337425 0.4634796,-0.900179 -0.4905374,-2.697502 0.4624303,-3.666287 -0.4842237,0.491062 0.2725163,2.970153 1.2850159,2.150285 0.5432619,-0.439905 0.9501946,-4.522921 0.9884998,-3.389495 0.065586,1.940725 1.4729712,2.322284 2.0829491,0.693839 0.2600987,-0.694379 1.2518992,-4.37308 1.1673122,-3.609249 -0.1549505,1.399233 0.957829,1.258108 1.526662,1.062681 0.932619,-0.320408 2.59562,-1.049371 2.417159,-2.108565 -0.126688,-0.751906 1.122948,1.75416 1.55322,1.817683 0.465544,0.06874 1.744597,-0.843019 1.897544,-1.813662 0.119978,-0.761413 0.518105,2.500643 1.019206,2.755214 0.391964,0.199126 2.145127,0.169019 2.197487,-1.298155 0.03585,-1.004396 0.18317,2.894384 0.752846,3.455135 0.401981,0.395684 1.470604,1.040615 1.714954,0.06617 0.198645,-0.792176 1.236869,3.50206 1.524825,2.843428 0.338101,-0.77333 -0.03456,1.556748 0.313618,2.325764 0.468906,1.035694 1.55769,0.86563 2.589926,-0.03302 0.468581,-0.407941 -0.935398,4.183705 -1.031269,4.85154 -0.08212,0.572114 -0.247315,0.600156 0.222596,1.671237 0.536075,1.221889 1.757337,-1.759253 1.891722,-1.649236 0.579321,0.474269 -0.683577,4.905031 -1.555242,4.975188 -0.149383,0.01202 0.03029,0.956673 0.02031,0.784443 z"
       id="path4273"
       inkscape:connector-curvature="0"
       sodipodi:nodetypes="ccssssssssssscssssssssssssssssssssc" />
    <path
       style="color:#000000;clip-rule:nonzero;display:inline;overflow:visible;visibility:visible;opacity:1;isolation:auto;mix-blend-mode:normal;color-interpolation:sRGB;color-interpolation-filters:linearRGB;solid-color:#000000;solid-opacity:1;fill:#002b00;fill-opacity:1;fill-rule:evenodd;stroke:#8b0000;stroke-width:0.32382664;stroke-linecap:butt;stroke-linejoin:bevel;stroke-miterlimit:4;stroke-dasharray:none;stroke-dashoffset:0;stroke-opacity:0;color-rendering:auto;image-rendering:auto;shape-rendering:auto;text-rendering:auto;enable-background:accumulate"
       d="m 2.279129,40.644649 c 3.0591578,2.589783 9.483747,2.890813 8.508285,12.97759 2.738805,-2.373448 6.733865,-3.1163 1.42498,-10.489645 -2.04887,-2.022898 -3.1401835,-6.652647 -4.5409763,-10.439868 1.7499566,2.187451 4.0588443,6.640993 5.8526513,6.453424 0.483773,-2.860883 0.688428,-7.066207 0.405809,-10.182571 1.802672,3.875316 1.851199,7.984466 1.802304,12.106602 3.027798,-1.63449 3.680875,-4.931391 5.202225,-7.620462 -0.993832,4.234669 -1.878991,8.520055 -4.487165,12.001316 l 0.539811,3.116019 c 3.143128,-2.481734 5.745846,-1.677854 7.635568,-5.621988 -0.739931,1.85859 0.764311,3.796525 -3.46104,5.531885 -0.839867,4.139588 1.455245,2.493929 3.438928,1.80434 -1.782436,1.001394 -2.732737,3.123042 -5.47733,2.829142 l -3.011731,6.952552 -2.143489,3.97105 -1.796081,-3.867992 C 10.974157,56.879525 6.1754129,54.27125 8.349919,51.736119 8.4020635,51.675327 4.053507,47.813707 3.4519452,47.155615 3.0967934,46.767089 7.0774808,47.961719 6.8170863,47.476949 5.5423456,45.103799 4.0671407,42.811298 2.279129,40.644649 Z"
       id="rect4287"
       inkscape:connector-curvature="0"
       sodipodi:nodetypes="cccccccccccccccccsssc" />
  </g>
  <g
     inkscape:groupmode="layer"
     id="layer2"
     inkscape:label="krzak2">
    <path
       style="color:#000000;clip-rule:nonzero;display:inline;overflow:visible;visibility:visible;opacity:1;isolation:auto;mix-blend-mode:normal;color-interpolation:sRGB;color-interpolation-filters:linearRGB;solid-color:#000000;solid-opacity:1;fill:#00411a;fill-opacity:1;fill-rule:evenodd;stroke:#8b0000;stroke-width:0.30728641;stroke-linecap:butt;stroke-linejoin:bevel;stroke-miterlimit:4;stroke-dasharray:none;stroke-dashoffset:0;stroke-opacity:0;color-rendering:auto;image-rendering:auto;shape-rendering:auto;text-rendering:auto;enable-background:accumulate"
       d="m 61.601839,43.032179 c 0,0.551313 1.654044,-0.807098 1.654044,-0.807098 0.258427,-0.331974 -0.498658,4.12342 -1.835165,5.664405 -0.4257,0.490832 0.778617,4.024014 2.018258,1.462407 0.252512,-0.521792 -0.01264,2.997649 -0.213846,3.539838 -0.25637,0.690835 -1.150059,2.543069 -1.522123,3.740463 -0.155764,0.501293 -2.880285,4.210862 -2.880285,4.210862 -4.032339,3.860897 -5.89731,3.261031 -10.469635,3.261031 -7.317085,0 -13.248751,-9.434213 -13.248751,-21.071908 0,-1.247883 -0.07592,-5.370829 0.05487,-6.559128 0.118285,-1.074624 0.431889,0.779163 0.648414,-0.232846 0.20288,-0.948236 0.02445,-6.790996 0.260732,-5.876034 0.422204,1.634913 1.335179,0.595202 1.795571,-0.37897 0.477805,-1.011016 -0.505699,-3.029637 0.476723,-4.117705 -0.49919,0.551525 0.280939,3.335858 1.324732,2.415042 0.560053,-0.494068 0.979565,-5.079811 1.019053,-3.806831 0.06761,2.179679 1.518496,2.608218 2.147327,0.779269 0.268139,-0.779876 1.290593,-4.911522 1.203392,-4.053643 -0.159741,1.571515 0.987432,1.413014 1.573848,1.193525 0.961443,-0.359859 2.675843,-1.178577 2.491866,-2.368185 -0.130602,-0.844486 1.157657,1.970143 1.601228,2.041488 0.479933,0.07719 1.798518,-0.946816 1.956192,-2.036972 0.123687,-0.855164 0.534118,2.808538 1.050707,3.094452 0.404079,0.223645 2.211427,0.189831 2.265405,-1.457991 0.03696,-1.128063 0.188832,3.25076 0.776116,3.880554 0.414405,0.444403 1.516056,1.168742 1.767958,0.07432 0.204786,-0.889714 1.275098,3.933256 1.571954,3.193529 0.348551,-0.868547 -0.03563,1.748425 0.323311,2.612126 0.483399,1.163219 1.605835,0.972213 2.669974,-0.03709 0.483065,-0.458169 -0.964309,4.698831 -1.063142,5.448894 -0.08466,0.642556 -0.254958,0.674051 0.229475,1.87701 0.552645,1.372336 1.811652,-1.975863 1.950191,-1.8523 0.597225,0.532663 -0.704704,5.50897 -1.603311,5.587765 -0.154,0.01349 0.03123,1.074464 0.02094,0.881028 z"
       id="path4273-5"
       inkscape:connector-curvature="0"
       sodipodi:nodetypes="ccssssssssssscssssssssssssssssssssc" />
    <path
       style="color:#000000;clip-rule:nonzero;display:inline;overflow:visible;visibility:visible;opacity:1;isolation:auto;mix-blend-mode:normal;color-interpolation:sRGB;color-interpolation-filters:linearRGB;solid-color:#000000;solid-opacity:1;fill:#002b00;fill-opacity:1;fill-rule:evenodd;stroke:#8b0000;stroke-width:0.33399245;stroke-linecap:butt;stroke-linejoin:bevel;stroke-miterlimit:4;stroke-dasharray:none;stroke-dashoffset:0;stroke-opacity:0;color-rendering:auto;image-rendering:auto;shape-rendering:auto;text-rendering:auto;enable-background:accumulate"
       d="m 37.82016,38.877195 c 3.058288,2.75572 9.481051,3.076038 8.505866,13.809112 2.738027,-2.525523 6.73195,-3.315972 1.424575,-11.161756 -2.048288,-2.152511 -3.139292,-7.078905 -4.539685,-11.10879 1.749458,2.32761 4.05769,7.066508 5.850986,6.86692 0.483637,-3.04419 0.688233,-7.518966 0.405695,-10.835008 1.802159,4.123622 1.850672,8.496062 1.801791,12.882319 3.026937,-1.739219 3.679828,-5.247363 5.200746,-8.108734 -0.993549,4.506001 -1.878457,9.065967 -4.48589,12.770287 l 0.539659,3.315672 c 3.142233,-2.640748 5.744211,-1.78536 7.633396,-5.982209 -0.73972,1.977677 0.764094,4.039782 -3.460055,5.886333 -0.839629,4.404826 1.45483,2.653725 3.437949,1.919951 -1.781929,1.065557 -2.73196,3.323147 -5.475771,3.010416 l -3.010876,7.398027 -2.142879,4.22549 -1.795571,-4.115829 c -1.197381,-3.497098 -5.99476,-6.272494 -3.820873,-8.970059 0.05213,-0.06468 -4.295191,-4.173736 -4.896581,-4.873994 -0.35505,-0.413421 3.624506,0.857754 3.364185,0.341922 -1.274379,-2.525206 -2.749164,-4.964595 -4.536667,-7.27007 z"
       id="rect4287-0"
       inkscape:connector-curvature="0"
       sodipodi:nodetypes="cccccccccccccccccsssc" />
  </g>
</svg>
