<?xml version="1.0" encoding="UTF-8" standalone="no"?>
<!-- Created with Inkscape (http://www.inkscape.org/) -->

<svg
   xmlns:dc="http://purl.org/dc/elements/1.1/"
   xmlns:cc="http://creativecommons.org/ns#"
   xmlns:rdf="http://www.w3.org/1999/02/22-rdf-syntax-ns#"
   xmlns:svg="http://www.w3.org/2000/svg"
   xmlns="http://www.w3.org/2000/svg"
   xmlns:sodipodi="http://sodipodi.sourceforge.net/DTD/sodipodi-0.dtd"
   xmlns:inkscape="http://www.inkscape.org/namespaces/inkscape"
   width="64"
   height="64"
   id="svg3352"
   version="1.1"
   inkscape:version="0.91 r"
   viewBox="0 0 64 64"
   sodipodi:docname="krzewy.svg">
  <defs
     id="defs3354" />
  <sodipodi:namedview
     id="base"
     pagecolor="#ffffff"
     bordercolor="#666666"
     borderopacity="1.0"
     inkscape:pageopacity="0.0"
     inkscape:pageshadow="2"
     inkscape:zoom="1.4142136"
     inkscape:cx="49.616195"
     inkscape:cy="30.074348"
     inkscape:current-layer="layer4"
     showgrid="true"
     inkscape:document-units="px"
     inkscape:grid-bbox="true"
     inkscape:window-width="1366"
     inkscape:window-height="716"
     inkscape:window-x="0"
     inkscape:window-y="0"
     inkscape:window-maximized="1" />
  <metadata
     id="metadata3357">
    <rdf:RDF>
      <cc:Work
         rdf:about="">
        <dc:format>image/svg+xml</dc:format>
        <dc:type
           rdf:resource="http://purl.org/dc/dcmitype/StillImage" />
        <dc:title></dc:title>
      </cc:Work>
    </rdf:RDF>
  </metadata>
  <g
     inkscape:groupmode="layer"
     id="layer4"
     inkscape:label="krzak4"
     style="display:inline">
    <path
       style="color:#000000;clip-rule:nonzero;display:inline;overflow:visible;visibility:visible;opacity:1;isolation:auto;mix-blend-mode:normal;color-interpolation:sRGB;color-interpolation-filters:linearRGB;solid-color:#000000;solid-opacity:1;fill:#225500;fill-opacity:1;fill-rule:evenodd;stroke:#8b0000;stroke-width:0.34621248;stroke-linecap:butt;stroke-linejoin:bevel;stroke-miterlimit:4;stroke-dasharray:none;stroke-dashoffset:0;stroke-opacity:0;color-rendering:auto;image-rendering:auto;shape-rendering:auto;text-rendering:auto;enable-background:accumulate"
       d="m 41.163531,32.586168 c 0,0.738793 1.566822,-1.081564 1.566822,-1.081564 0.244801,-0.444868 -0.472362,5.525649 -1.738391,7.590668 -0.403252,0.657745 0.737558,5.392439 1.91183,1.959719 0.239196,-0.699235 -0.01198,4.017044 -0.202568,4.743613 -0.242853,0.925763 -1.089416,3.407875 -1.441858,5.012462 -0.147552,0.671764 -2.728403,5.642826 -2.728403,5.642826 -3.819707,5.173854 -5.586334,4.369991 -9.917554,4.369991 -6.931238,0 -12.550118,-12.642454 -12.550118,-28.237715 0,-1.672246 -0.07193,-7.19726 0.05197,-8.789658 0.112047,-1.440065 0.409114,1.04413 0.614222,-0.312028 0.192181,-1.2707 0.02316,-9.100372 0.246983,-7.874263 0.399939,2.190887 1.264772,0.79761 1.700887,-0.507847 0.452608,-1.354825 -0.479033,-4.059907 0.451583,-5.5179872 -0.472866,0.7390782 0.266126,4.4702632 1.254877,3.2363102 0.530521,-0.662084 0.927911,-6.8072746 0.965316,-5.1013992 0.06405,2.9209112 1.438424,3.4951802 2.034096,1.044271 0.254,-1.045084 1.222537,-6.5817561 1.139934,-5.4321436 -0.151318,2.1059328 0.935364,1.8935299 1.490855,1.5994011 0.910744,-0.4822336 2.534742,-1.5793684 2.360467,-3.1735216 -0.123717,-1.13166488 1.09661,2.6401195 1.516791,2.7357254 0.454625,0.1034534 1.703679,-1.2687945 1.853038,-2.7296739 0.117164,-1.14597388 0.505954,3.7636244 0.995301,4.1467681 0.382772,0.2996973 2.094815,0.2543849 2.145947,-1.9538036 0.03501,-1.5116782 0.178874,4.3562271 0.735189,5.2001931 0.392553,0.59553 1.436112,1.5661882 1.674731,0.09959 0.193986,-1.192273 1.207859,5.2708182 1.489062,4.2795352 0.330171,-1.16391 -0.03375,2.343002 0.306261,3.50042 0.457909,1.558782 1.521157,1.302826 2.529183,-0.04971 0.457591,-0.613977 -0.913461,6.296735 -1.007081,7.301869 -0.0802,0.861068 -0.241515,0.903273 0.217374,2.515313 0.523502,1.839021 1.71612,-2.647784 1.847353,-2.482202 0.565734,0.713804 -0.667544,7.382377 -1.518766,7.487968 -0.145877,0.01808 0.02958,1.439852 0.01983,1.180635 z"
       id="path4273-6-7"
       inkscape:connector-curvature="0"
       sodipodi:nodetypes="ccssssssssssscssssssssssssssssssssc" />
    <path
       style="color:#000000;clip-rule:nonzero;display:inline;overflow:visible;visibility:visible;opacity:1;isolation:auto;mix-blend-mode:normal;color-interpolation:sRGB;color-interpolation-filters:linearRGB;solid-color:#000000;solid-opacity:1;fill:#22280b;fill-opacity:1;fill-rule:evenodd;stroke:#8b0000;stroke-width:0.19732711;stroke-linecap:butt;stroke-linejoin:bevel;stroke-miterlimit:4;stroke-dasharray:none;stroke-dashoffset:0;stroke-opacity:0;color-rendering:auto;image-rendering:auto;shape-rendering:auto;text-rendering:auto;enable-background:accumulate"
       d="m 27.600853,8.5847708 c 0.813328,5.4541372 3.740983,8.5701022 3.718092,15.3961072 -0.01912,5.702525 -2.927405,-6.178398 -3.061376,-7.165136 -0.417736,-3.07673 1.379325,15.579793 2.531658,12.077783 0.413,-1.25513 -0.670789,3.048061 -1.208784,4.810905 -0.512253,1.678487 -2.961923,-9.904101 -3.48383,-13.919954 0.290349,3.866823 1.240019,15.155143 1.948841,16.71178 0.316444,0.600192 0.415322,0.831936 0.477103,0.726938 -0.06116,0.202447 -1.013582,0.642737 -1.079011,0.618126 -2.553693,3.266676 -4.567584,-14.204346 -4.17905,-14.847568 3.048742,-5.047235 3.325934,-7.724008 3.786342,-8.985222 0.22265,-0.609911 -3.355461,7.647112 -3.925772,6.400824 -0.470776,-1.028776 -0.130315,-2.863198 -0.181503,-4.203472 L 21.83162,27.369405 c 0.0559,9.765357 1.528116,13.560162 3.270229,16.21488 -2.507083,5.910003 -3.757466,-1.516198 -5.326278,-5.727337 2.555551,17.264805 6.280561,19.716584 9.71761,22.678986 5.509646,-3.148022 10.116462,-8.831146 10.367499,-19.084506 -1.151003,1.794699 -3.495912,3.610331 -4.886645,2.190448 0.605382,-4.265019 2.61904,-11.368235 2.626988,-17.060873 -0.299928,-5.206807 -0.800169,-10.338036 -3.565257,-14.602328 0.975085,5.830044 1.719563,18.621513 -0.922479,21.981934 C 33.651992,24.888008 32.649139,21.208914 32.188316,19.066354 29.853561,11.423013 29.031505,13.34519 27.600853,8.5847708 Z M 26.163115,19.588647 c -0.07802,-1.039002 -0.122966,-1.604696 -0.08892,-0.859896 0.0096,0.210552 0.04426,0.516268 0.08892,0.859896 z m 3.377094,25.019425 c 0.190863,-4.848198 0.254741,-4.861821 0.395211,-5.886592 0.501321,5.785561 0.69812,11.528318 -0.488925,17.076556 l -1.325575,-1.314203 0.422634,-2.864827 c 0.179326,-1.324842 0.718424,-2.848012 0.40984,-2.674071 -0.535196,0.301676 -0.598179,-7.364422 -0.545888,-6.407042 0.133703,2.448029 1.000682,7.061319 1.132703,2.070179 z"
       id="rect4340-8"
       inkscape:connector-curvature="0"
       sodipodi:nodetypes="cssssccccssscccccccccccccsccccccssc" />
    <path
       style="color:#000000;clip-rule:nonzero;display:inline;overflow:visible;visibility:visible;opacity:1;isolation:auto;mix-blend-mode:normal;color-interpolation:sRGB;color-interpolation-filters:linearRGB;solid-color:#000000;solid-opacity:1;fill:#22280b;fill-opacity:1;fill-rule:evenodd;stroke:#8b0000;stroke-width:0.22986847;stroke-linecap:butt;stroke-linejoin:bevel;stroke-miterlimit:4;stroke-dasharray:none;stroke-dashoffset:0;stroke-opacity:0;color-rendering:auto;image-rendering:auto;shape-rendering:auto;text-rendering:auto;enable-background:accumulate"
       d="m 29.108292,45.877034 c 0.115967,-3.423016 0.402419,-7.628629 0.728943,-10.436069 1.109953,6.986887 0.559537,15.436023 0.331747,22.807576 l -2.432227,-2.086434 c 0.331569,-2.487235 0.367431,-4.389904 1.173144,-6.849304 -0.776272,1.714441 -0.997173,-4.124704 -0.727575,-8.694509 0.333631,1.850682 0.450889,4.746218 0.925968,5.25874 z"
       id="rect4346-6"
       inkscape:connector-curvature="0"
       sodipodi:nodetypes="ccccccc" />
    <path
       style="color:#000000;clip-rule:nonzero;display:inline;overflow:visible;visibility:visible;opacity:1;isolation:auto;mix-blend-mode:normal;color-interpolation:sRGB;color-interpolation-filters:linearRGB;solid-color:#000000;solid-opacity:1;fill:#00411a;fill-opacity:1;fill-rule:evenodd;stroke:#8b0000;stroke-width:0.17951007;stroke-linecap:butt;stroke-linejoin:bevel;stroke-miterlimit:4;stroke-dasharray:none;stroke-dashoffset:0;stroke-opacity:0;color-rendering:auto;image-rendering:auto;shape-rendering:auto;text-rendering:auto;enable-background:accumulate"
       d="m 26.969439,43.308959 c 0,0.455716 0.682877,-0.667148 0.682877,-0.667148 0.106693,-0.274409 -0.205872,3.408421 -0.757652,4.682199 -0.175752,0.405721 0.321454,3.326252 0.833243,1.208826 0.10425,-0.431313 -0.0052,2.477858 -0.08828,2.926032 -0.105844,0.571044 -0.474806,2.1021 -0.628413,3.091867 -0.06431,0.414369 -1.189134,3.480701 -1.189134,3.480701 -1.664763,3.191418 -2.434722,2.695569 -4.322421,2.695569 -3.020878,0 -5.469784,-7.798324 -5.469784,-17.418046 0,-1.031501 -0.03135,-4.43953 0.02265,-5.421777 0.04883,-0.888284 0.178306,0.644056 0.267699,-0.192471 0.08376,-0.783812 0.01009,-5.613439 0.107644,-4.85713 0.174308,1.351419 0.551232,0.491994 0.741306,-0.313257 0.197264,-0.835706 -0.208779,-2.504298 0.196817,-3.403696 -0.206092,0.455891 0.115987,2.757421 0.546919,1.996274 0.23122,-0.408397 0.404416,-4.198974 0.420719,-3.146727 0.02791,1.801723 0.626916,2.155954 0.886531,0.644143 0.110701,-0.644645 0.532824,-4.059865 0.496823,-3.350742 -0.06595,1.299015 0.407665,1.167998 0.649767,0.986568 0.396935,-0.297459 1.104731,-0.974211 1.028776,-1.957543 -0.05392,-0.698052 0.477941,1.628521 0.661071,1.687495 0.19814,0.06382 0.742522,-0.782639 0.807619,-1.683761 0.05106,-0.706878 0.220512,2.321538 0.433787,2.557876 0.166825,0.184863 0.912995,0.156914 0.93528,-1.205177 0.01526,-0.932458 0.07796,2.687079 0.32042,3.207666 0.171089,0.367344 0.625909,0.966083 0.729908,0.06143 0.08455,-0.735437 0.526428,3.251232 0.648986,2.639773 0.1439,-0.717942 -0.01471,1.445248 0.13348,2.159185 0.199573,0.961513 0.662973,0.80363 1.102306,-0.03066 0.199434,-0.378723 -0.398118,3.884054 -0.438922,4.504056 -0.03495,0.531137 -0.10526,0.557171 0.09474,1.551538 0.228161,1.134374 0.747946,-1.63325 0.805142,-1.531112 0.246567,0.4403 -0.290939,4.553716 -0.661932,4.618848 -0.06358,0.01116 0.0129,0.888153 0.0086,0.728259 z"
       id="path4273-8"
       inkscape:connector-curvature="0"
       sodipodi:nodetypes="ccssssssssssscssssssssssssssssssssc" />
    <path
       style="color:#000000;clip-rule:nonzero;display:inline;overflow:visible;visibility:visible;opacity:1;isolation:auto;mix-blend-mode:normal;color-interpolation:sRGB;color-interpolation-filters:linearRGB;solid-color:#000000;solid-opacity:1;fill:#002b00;fill-opacity:1;fill-rule:evenodd;stroke:#8b0000;stroke-width:0.20355521;stroke-linecap:butt;stroke-linejoin:bevel;stroke-miterlimit:4;stroke-dasharray:none;stroke-dashoffset:0;stroke-opacity:0;color-rendering:auto;image-rendering:auto;shape-rendering:auto;text-rendering:auto;enable-background:accumulate"
       d="m 16.816902,39.034452 c 1.302018,2.404295 4.036408,2.683764 3.621238,12.048093 1.165671,-2.203454 2.866022,-2.893101 0.60649,-9.738343 -0.872026,-1.878011 -1.336503,-6.176162 -1.932699,-9.692129 0.744805,2.030778 1.727498,6.165343 2.490966,5.991208 0.205899,-2.655977 0.293004,-6.560102 0.172717,-9.453261 0.767241,3.597753 0.787895,7.412592 0.767085,11.239486 1.28867,-1.517422 1.566628,-4.578188 2.214135,-7.074659 -0.422988,3.931368 -0.799723,7.90982 -1.909796,11.141742 l 0.22975,2.892839 c 1.337757,-2.303983 2.445507,-1.557681 3.249798,-5.219322 -0.314924,1.725472 0.325301,3.524605 -1.473063,5.135673 -0.357459,3.843096 0.61937,2.315305 1.463653,1.675107 -0.758629,0.92967 -1.163089,2.899359 -2.331224,2.626509 l -1.281833,6.454587 -0.912297,3.686631 -0.764435,-3.590954 c -0.509766,-3.051127 -2.552175,-5.472588 -1.626677,-7.826145 0.02219,-0.05644 -1.828609,-3.641476 -2.084642,-4.252433 -0.151157,-0.360698 1.543076,0.748368 1.432249,0.298319 -0.542547,-2.203177 -1.170413,-4.331481 -1.931415,-6.342948 z"
       id="rect4287-01"
       inkscape:connector-curvature="0"
       sodipodi:nodetypes="cccccccccccccccccsssc" />
    <path
       style="color:#000000;clip-rule:nonzero;display:inline;overflow:visible;visibility:visible;opacity:1;isolation:auto;mix-blend-mode:normal;color-interpolation:sRGB;color-interpolation-filters:linearRGB;solid-color:#000000;solid-opacity:1;fill:#002b00;fill-opacity:1;fill-rule:evenodd;stroke:#8b0000;stroke-width:0.20994537;stroke-linecap:butt;stroke-linejoin:bevel;stroke-miterlimit:4;stroke-dasharray:none;stroke-dashoffset:0;stroke-opacity:0;color-rendering:auto;image-rendering:auto;shape-rendering:auto;text-rendering:auto;enable-background:accumulate"
       d="m 31.943633,37.393589 c 1.301648,2.558347 4.03526,2.855722 3.620208,12.820058 1.165341,-2.344637 2.865207,-3.078472 0.606319,-10.362314 -0.871779,-1.998341 -1.336125,-6.57189 -1.93215,-10.313142 0.744591,2.160899 1.727005,6.560382 2.490256,6.375089 0.205843,-2.826155 0.292921,-6.980433 0.17267,-10.058969 0.767022,3.828275 0.787669,7.887546 0.766865,11.959645 1.288304,-1.614651 1.566183,-4.871529 2.213506,-7.52796 -0.422867,4.183266 -0.799496,8.416632 -1.909253,11.855636 l 0.229685,3.078193 c 1.337376,-2.451609 2.444812,-1.657487 3.248874,-5.553743 -0.314835,1.836029 0.325209,3.750439 -1.472644,5.464734 -0.357358,4.089338 0.619194,2.463657 1.463235,1.782438 -0.758412,0.989238 -1.162758,3.085132 -2.33056,2.7948 l -1.281468,6.868156 -0.912038,3.922846 -0.764218,-3.82104 c -0.509622,-3.246624 -2.551449,-5.823237 -1.626214,-8.327594 0.02219,-0.06004 -1.82809,-3.874798 -2.084049,-4.524902 -0.151114,-0.38381 1.542637,0.796319 1.431841,0.317433 -0.542393,-2.344342 -1.17008,-4.609014 -1.930865,-6.749364 z"
       id="rect4287-0-6"
       inkscape:connector-curvature="0"
       sodipodi:nodetypes="cccccccccccccccccsssc" />
    <path
       style="color:#000000;clip-rule:nonzero;display:inline;overflow:visible;visibility:visible;opacity:1;isolation:auto;mix-blend-mode:normal;color-interpolation:sRGB;color-interpolation-filters:linearRGB;solid-color:#000000;solid-opacity:1;fill:#445500;fill-opacity:1;fill-rule:evenodd;stroke:#8b0000;stroke-width:0.338045;stroke-linecap:butt;stroke-linejoin:bevel;stroke-miterlimit:4;stroke-dasharray:none;stroke-dashoffset:0;stroke-opacity:0;color-rendering:auto;image-rendering:auto;shape-rendering:auto;text-rendering:auto;enable-background:accumulate"
       d="m 62.183645,33.881276 c 0,0.769708 1.433773,-1.126822 1.433773,-1.126822 0.224013,-0.463483 -0.43225,5.756869 -1.590773,7.908298 -0.369009,0.685268 0.674928,5.618084 1.749484,2.041722 0.218884,-0.728493 -0.01096,4.185136 -0.185367,4.942109 -0.22223,0.9645 -0.996906,3.550476 -1.31942,5.222206 -0.135022,0.699874 -2.496716,5.878949 -2.496716,5.878949 -3.49535,5.390352 -5.111961,4.552852 -9.075389,4.552852 -6.342661,0 -11.484404,-13.171474 -11.484404,-29.419314 0,-1.74222 -0.06582,-7.498427 0.04756,-9.157458 0.102533,-1.500324 0.374375,1.087821 0.562065,-0.325085 0.175861,-1.323872 0.02119,-9.481174 0.22601,-8.203759 0.365977,2.282564 1.157371,0.830986 1.556453,-0.529098 0.414175,-1.411517 -0.438355,-4.229792 0.413236,-5.7488848 -0.432711,0.7700038 0.243528,4.6573198 1.148318,3.3717318 0.48547,-0.689789 0.849115,-7.092122 0.883344,-5.3148643 0.05861,3.0431353 1.316277,3.6414343 1.861367,1.0879678 0.232431,-1.0888156 1.118723,-6.8571679 1.043135,-5.6594501 -0.138468,2.1940549 0.855936,1.972764 1.364256,1.6663275 0.833408,-0.5024125 2.319501,-1.6454566 2.160024,-3.3063167 -0.113211,-1.17901897 1.003491,2.7505946 1.38799,2.8502011 0.41602,0.1077824 1.559009,-1.3218871 1.695685,-2.8438958 0.107215,-1.19392697 0.46299,3.9211116 0.910783,4.3202879 0.350269,0.312238 1.916931,0.2650296 1.963721,-2.0355599 0.03204,-1.574934 0.163685,4.538512 0.67276,5.4177937 0.359218,0.6204488 1.314161,1.6317238 1.532518,0.103758 0.177513,-1.2421642 1.105292,5.4913728 1.362615,4.4586098 0.302135,-1.212614 -0.03088,2.441044 0.280255,3.646894 0.419025,1.624008 1.391986,1.357342 2.314413,-0.05179 0.418735,-0.639669 -0.835892,6.56022 -0.921563,7.607413 -0.07339,0.897099 -0.221006,0.94107 0.198916,2.620566 0.479047,1.915974 1.570393,-2.75858 1.690482,-2.586069 0.517693,0.743672 -0.610859,7.69129 -1.389797,7.8013 -0.13349,0.01884 0.02707,1.500101 0.01815,1.230038 z"
       id="path4273-6-0"
       inkscape:connector-curvature="0"
       sodipodi:nodetypes="ccssssssssssscssssssssssssssssssssc" />
    <path
       style="color:#000000;clip-rule:nonzero;display:inline;overflow:visible;visibility:visible;opacity:1;isolation:auto;mix-blend-mode:normal;color-interpolation:sRGB;color-interpolation-filters:linearRGB;solid-color:#000000;solid-opacity:1;fill:#002c00;fill-opacity:1;fill-rule:evenodd;stroke:#8b0000;stroke-width:0.19267198;stroke-linecap:butt;stroke-linejoin:bevel;stroke-miterlimit:4;stroke-dasharray:none;stroke-dashoffset:0;stroke-opacity:0;color-rendering:auto;image-rendering:auto;shape-rendering:auto;text-rendering:auto;enable-background:accumulate"
       d="m 49.772664,8.8755486 c 0.744263,5.6823634 3.423311,8.9287144 3.402364,16.0403524 -0.0175,5.941145 -2.67882,-6.436932 -2.801415,-7.464959 -0.382262,-3.205475 1.262199,16.231725 2.316679,12.583174 0.377929,-1.307651 -0.613827,3.175606 -1.106138,5.012215 -0.468754,1.748724 -2.710407,-10.318535 -3.187995,-14.502429 0.265693,4.028628 1.13472,15.789305 1.783352,17.411079 0.289573,0.625307 0.380054,0.866748 0.436589,0.757357 -0.05597,0.210918 -0.927512,0.669632 -0.987385,0.643991 -2.336842,3.403368 -4.17972,-14.798723 -3.82418,-15.46886 2.789854,-5.258435 3.043508,-8.047217 3.464819,-9.361206 0.203744,-0.635433 -3.070526,7.967103 -3.592408,6.668665 -0.430799,-1.071826 -0.11925,-2.983008 -0.16609,-4.379366 L 44.493334,28.44622 c 0.05115,10.173985 1.398354,14.127583 2.992533,16.893386 -2.29419,6.157306 -3.438395,-1.579642 -4.873987,-5.966996 2.33854,17.987246 5.747236,20.541619 8.892422,23.627981 5.041786,-3.279749 9.257406,-9.200682 9.487126,-19.883091 -1.053264,1.869798 -3.199051,3.761405 -4.471687,2.282107 0.553974,-4.443488 2.396639,-11.843935 2.403912,-17.77478 -0.274459,-5.424684 -0.732221,-10.770628 -3.262507,-15.213357 0.892284,6.074 1.573543,19.400724 -0.844145,22.90176 C 55.30996,25.860989 54.392266,22.027944 53.970575,19.79573 51.83408,11.832555 51.081829,13.835165 49.772664,8.8755486 Z M 48.457014,20.339878 C 48.385624,19.2574 48.34449,18.668034 48.375644,19.444 c 0.0088,0.219362 0.0405,0.537871 0.08137,0.895878 z m 3.090322,26.066355 c 0.174656,-5.051069 0.23311,-5.065262 0.361652,-6.132914 0.45875,6.027656 0.638838,12.010716 -0.447407,17.791119 l -1.213013,-1.369195 0.386746,-2.984706 c 0.164098,-1.380279 0.657418,-2.967185 0.375038,-2.785967 -0.489749,0.314301 -0.547384,-7.672583 -0.499534,-6.675141 0.12235,2.550465 0.915708,7.356797 1.036518,2.156804 z"
       id="rect4340-2"
       inkscape:connector-curvature="0"
       sodipodi:nodetypes="cssssccccssscccccccccccccsccccccssc" />
    <path
       style="color:#000000;clip-rule:nonzero;display:inline;overflow:visible;visibility:visible;opacity:1;isolation:auto;mix-blend-mode:normal;color-interpolation:sRGB;color-interpolation-filters:linearRGB;solid-color:#000000;solid-opacity:1;fill:#22280b;fill-opacity:1;fill-rule:evenodd;stroke:#8b0000;stroke-width:0.22444567;stroke-linecap:butt;stroke-linejoin:bevel;stroke-miterlimit:4;stroke-dasharray:none;stroke-dashoffset:0;stroke-opacity:0;color-rendering:auto;image-rendering:auto;shape-rendering:auto;text-rendering:auto;enable-background:accumulate"
       d="m 51.152096,47.728294 c 0.10612,-3.566251 0.368247,-7.947846 0.667044,-10.872763 1.0157,7.279251 0.512023,16.081939 0.303576,23.761953 l -2.22569,-2.173741 c 0.303413,-2.591312 0.336229,-4.573598 1.073524,-7.135911 -0.710353,1.786181 -0.912496,-4.297301 -0.665792,-9.058328 0.3053,1.928123 0.412601,4.944822 0.847338,5.47879 z"
       id="rect4346-9"
       inkscape:connector-curvature="0"
       sodipodi:nodetypes="ccccccc" />
    <path
       style="color:#000000;clip-rule:nonzero;display:inline;overflow:visible;visibility:visible;opacity:1;isolation:auto;mix-blend-mode:normal;color-interpolation:sRGB;color-interpolation-filters:linearRGB;solid-color:#000000;solid-opacity:1;fill:#89a02c;fill-opacity:1;fill-rule:evenodd;stroke:#8b0000;stroke-width:0.19031605;stroke-linecap:butt;stroke-linejoin:bevel;stroke-miterlimit:4;stroke-dasharray:none;stroke-dashoffset:0;stroke-opacity:0;color-rendering:auto;image-rendering:auto;shape-rendering:auto;text-rendering:auto;enable-background:accumulate"
       d="m 49.055801,45.052411 c 0,0.474596 0.737028,-0.694791 0.737028,-0.694791 0.11515,-0.285779 -0.222198,3.549643 -0.817734,4.876198 -0.189689,0.422531 0.346945,3.46407 0.899319,1.258912 0.11252,-0.449184 -0.0057,2.580523 -0.09529,3.047267 -0.11423,0.594704 -0.512458,2.189197 -0.678245,3.219973 -0.06941,0.431538 -1.283432,3.624917 -1.283432,3.624917 -1.796777,3.323651 -2.627792,2.807257 -4.665183,2.807257 -3.26043,0 -5.903533,-8.121435 -5.903533,-18.139733 0,-1.07424 -0.03383,-4.623475 0.02445,-5.64642 0.05271,-0.92509 0.192446,0.670741 0.288928,-0.200446 0.09041,-0.816288 0.01085,-5.846023 0.116176,-5.058377 0.188131,1.407413 0.594945,0.512379 0.800091,-0.326237 0.212907,-0.870331 -0.225335,-2.60806 0.212424,-3.544722 -0.222435,0.47478 0.125185,2.87167 0.59029,2.078986 0.249555,-0.425318 0.436485,-4.372952 0.45408,-3.277107 0.03012,1.876375 0.676631,2.245283 0.956833,0.670833 0.119479,-0.671355 0.575077,-4.22808 0.536221,-3.489574 -0.07118,1.352837 0.439992,1.216391 0.701294,1.027445 0.42841,-0.309785 1.192332,-1.014577 1.110354,-2.038651 -0.05819,-0.726975 0.515842,1.695996 0.713493,1.757413 0.213854,0.06646 0.801404,-0.815066 0.871663,-1.753524 0.05512,-0.736168 0.237999,2.417727 0.468186,2.663857 0.180055,0.192522 0.985395,0.163415 1.009447,-1.255111 0.01646,-0.971093 0.08414,2.798413 0.34583,3.34057 0.184655,0.382564 0.675542,1.006111 0.787787,0.06397 0.09125,-0.765908 0.568174,3.385941 0.700451,2.749147 0.155311,-0.747688 -0.01587,1.50513 0.144064,2.248648 0.215399,1.001352 0.715547,0.836927 1.189718,-0.03193 0.215249,-0.394414 -0.429688,4.044983 -0.473727,4.690675 -0.03772,0.553144 -0.113606,0.580256 0.102246,1.615823 0.246254,1.181374 0.807258,-1.700921 0.868989,-1.594551 0.26612,0.458543 -0.314011,4.742392 -0.714422,4.810222 -0.06862,0.01163 0.01392,0.924952 0.0093,0.758433 z"
       id="path4273-0"
       inkscape:connector-curvature="0"
       sodipodi:nodetypes="ccssssssssssscssssssssssssssssssssc" />
    <path
       style="color:#000000;clip-rule:nonzero;display:inline;overflow:visible;visibility:visible;opacity:1;isolation:auto;mix-blend-mode:normal;color-interpolation:sRGB;color-interpolation-filters:linearRGB;solid-color:#000000;solid-opacity:1;fill:#2b2200;fill-opacity:1;fill-rule:evenodd;stroke:#8b0000;stroke-width:0.21585804;stroke-linecap:butt;stroke-linejoin:bevel;stroke-miterlimit:4;stroke-dasharray:none;stroke-dashoffset:0;stroke-opacity:0;color-rendering:auto;image-rendering:auto;shape-rendering:auto;text-rendering:auto;enable-background:accumulate"
       d="m 38.326334,40.60064 c 1.405666,2.504348 4.357728,2.795446 3.909508,12.549464 1.258468,-2.295149 3.094174,-3.013494 0.654771,-10.143595 -0.941444,-1.956164 -1.442896,-6.433179 -2.086552,-10.09546 0.804095,2.115286 1.865015,6.421909 2.68926,6.240528 0.22229,-2.766504 0.316329,-6.833095 0.186467,-9.846652 0.828317,3.747471 0.850615,7.721061 0.828148,11.707209 1.391256,-1.580569 1.691342,-4.768706 2.390394,-7.369065 -0.456661,4.094968 -0.863386,8.23898 -2.061828,11.605396 l 0.24804,3.013223 c 1.444251,-2.399862 2.640184,-1.622503 3.508501,-5.43652 -0.339994,1.797275 0.351196,3.671278 -1.590328,5.349389 -0.385915,4.003024 0.668676,2.411654 1.580168,1.744815 -0.819019,0.968359 -1.255677,3.020014 -2.516802,2.73581 l -1.383873,6.723189 -0.984923,3.840047 -0.825288,-3.740388 c -0.550346,-3.178097 -2.755342,-5.700326 -1.756169,-8.151824 0.02396,-0.05879 -1.974177,-3.793013 -2.250592,-4.429394 -0.16319,-0.375709 1.665913,0.77951 1.546264,0.310733 -0.585736,-2.294861 -1.263584,-4.511733 -2.085166,-6.606905 z"
       id="rect4287-9"
       inkscape:connector-curvature="0"
       sodipodi:nodetypes="cccccccccccccccccsssc" />
    <path
       style="color:#000000;clip-rule:nonzero;display:inline;overflow:visible;visibility:visible;opacity:1;isolation:auto;mix-blend-mode:normal;color-interpolation:sRGB;color-interpolation-filters:linearRGB;solid-color:#000000;solid-opacity:1;fill:#338000;fill-opacity:1;fill-rule:evenodd;stroke:#8b0000;stroke-width:0.18860134;stroke-linecap:butt;stroke-linejoin:bevel;stroke-miterlimit:4;stroke-dasharray:none;stroke-dashoffset:0;stroke-opacity:0;color-rendering:auto;image-rendering:auto;shape-rendering:auto;text-rendering:auto;enable-background:accumulate"
       d="m 63.008956,42.908664 c 0,0.533244 0.644204,-0.780644 0.644204,-0.780644 0.100649,-0.321094 -0.194214,3.988272 -0.714745,5.478749 -0.165798,0.474746 0.303249,3.892125 0.786054,1.414477 0.09835,-0.504691 -0.0049,2.899398 -0.08329,3.423817 -0.09985,0.668192 -0.447916,2.459717 -0.592824,3.617866 -0.06066,0.484863 -1.121789,4.072848 -1.121789,4.072848 -1.570481,3.734354 -2.296834,3.154149 -4.077625,3.154149 -2.849795,0 -5.160011,-9.125001 -5.160011,-20.381262 0,-1.206983 -0.02957,-5.194796 0.02137,-6.344147 0.04607,-1.039403 0.168209,0.753625 0.252539,-0.225215 0.07902,-0.917157 0.0095,-6.568416 0.101548,-5.683443 0.164436,1.581327 0.520014,0.575694 0.699323,-0.366549 0.186092,-0.977879 -0.196955,-2.930339 0.18567,-3.982744 -0.19442,0.533448 0.109418,3.226523 0.515945,2.335887 0.218126,-0.477874 0.381513,-4.913316 0.396893,-3.682059 0.02633,2.108238 0.591411,2.522731 0.836323,0.753728 0.104432,-0.754316 0.502649,-4.750544 0.468686,-3.920782 -0.06221,1.520007 0.384577,1.366701 0.612969,1.154406 0.374455,-0.348065 1.042165,-1.139949 0.970511,-2.290566 -0.05087,-0.816808 0.450875,1.90557 0.623633,1.974577 0.18692,0.07466 0.700471,-0.915783 0.761882,-1.970209 0.04818,-0.827136 0.208023,2.716486 0.40922,2.993029 0.157377,0.216315 0.861287,0.183609 0.88231,-1.410204 0.01439,-1.09109 0.07355,3.144214 0.302276,3.753366 0.161398,0.429837 0.59046,1.130436 0.688568,0.07188 0.07976,-0.860553 0.496615,3.80434 0.612232,3.088858 0.13575,-0.840079 -0.01388,1.69112 0.12592,2.526513 0.188271,1.125093 0.625428,0.940347 1.039879,-0.03588 0.188141,-0.443152 -0.375571,4.544823 -0.414063,5.270303 -0.03297,0.621496 -0.0993,0.651959 0.08937,1.815489 0.215239,1.327358 0.705587,-1.911102 0.759543,-1.791589 0.232603,0.515205 -0.274461,5.32841 -0.624444,5.404622 -0.05998,0.01305 0.01217,1.039248 0.0081,0.852152 z"
       id="path4273-5-1"
       inkscape:connector-curvature="0"
       sodipodi:nodetypes="ccssssssssssscssssssssssssssssssssc" />
    <path
       style="color:#000000;clip-rule:nonzero;display:inline;overflow:visible;visibility:visible;opacity:1;isolation:auto;mix-blend-mode:normal;color-interpolation:sRGB;color-interpolation-filters:linearRGB;solid-color:#000000;solid-opacity:1;fill:#002b00;fill-opacity:1;fill-rule:evenodd;stroke:#8b0000;stroke-width:0.20499256;stroke-linecap:butt;stroke-linejoin:bevel;stroke-miterlimit:4;stroke-dasharray:none;stroke-dashoffset:0;stroke-opacity:0;color-rendering:auto;image-rendering:auto;shape-rendering:auto;text-rendering:auto;enable-background:accumulate"
       d="m 53.74667,38.889863 c 1.191116,2.665399 3.692599,2.975219 3.312792,13.356508 1.066384,-2.442747 2.621903,-3.207288 0.554832,-10.795921 -0.79775,-2.081961 -1.222665,-6.846889 -1.768078,-10.744692 0.681363,2.251321 1.580354,6.834898 2.278792,6.641852 0.188363,-2.944414 0.268047,-7.272527 0.158007,-10.479883 0.70189,3.988468 0.720784,8.217598 0.701746,12.460092 1.178906,-1.682215 1.433188,-5.075377 2.025543,-7.842964 -0.386959,4.358313 -0.731606,8.768823 -1.747127,12.351731 l 0.210182,3.206999 c 1.22381,-2.554196 2.237207,-1.726844 2.97299,-5.786138 -0.2881,1.912857 0.297593,3.907375 -1.347592,5.693404 -0.327012,4.260455 0.566614,2.566748 1.338983,1.857024 -0.694011,1.030633 -1.064021,3.214228 -2.132658,2.911748 l -1.17265,7.155551 -0.83459,4.086997 -0.699323,-3.980931 c -0.466347,-3.382478 -2.334789,-6.066908 -1.488122,-8.676059 0.02031,-0.06256 -1.672855,-4.036938 -1.907079,-4.714245 -0.138282,-0.399871 1.411642,0.829641 1.310254,0.330715 -0.496334,-2.44244 -1.070721,-4.801877 -1.766902,-7.031788 z"
       id="rect4287-0-5"
       inkscape:connector-curvature="0"
       sodipodi:nodetypes="cccccccccccccccccsssc" />
  </g>
  <g
     inkscape:groupmode="layer"
     id="layer3"
     inkscape:label="krzak3"
     style="display:inline">
    <path
       style="color:#000000;clip-rule:nonzero;display:inline;overflow:visible;visibility:visible;opacity:1;isolation:auto;mix-blend-mode:normal;color-interpolation:sRGB;color-interpolation-filters:linearRGB;solid-color:#000000;solid-opacity:1;fill:#005500;fill-opacity:1;fill-rule:evenodd;stroke:#8b0000;stroke-width:0.3597433;stroke-linecap:butt;stroke-linejoin:bevel;stroke-miterlimit:4;stroke-dasharray:none;stroke-dashoffset:0;stroke-opacity:0;color-rendering:auto;image-rendering:auto;shape-rendering:auto;text-rendering:auto;enable-background:accumulate"
       d="m 25.469972,33.70312 c 0,0.798059 1.566057,-1.168327 1.566057,-1.168327 0.244681,-0.480555 -0.472131,5.968917 -1.737542,8.199592 -0.403055,0.710509 0.737198,5.82502 1.910896,2.116927 0.239079,-0.755327 -0.01197,4.339291 -0.202469,5.124146 -0.242734,1.000027 -1.088884,3.681254 -1.441154,5.414561 -0.147479,0.725653 -2.72707,6.095494 -2.72707,6.095494 -3.817841,5.5889 -5.583605,4.720552 -9.912709,4.720552 -6.9278528,0 -12.54398762,-13.656632 -12.54398762,-30.502945 0,-1.806393 -0.0718894,-7.774624 0.0519471,-9.494764 0.11199169,-1.555587 0.40891424,1.12789 0.61392182,-0.337059 0.1920873,-1.372635 0.023151,-9.830403 0.2468615,-8.505936 0.3997447,2.36664 1.264154,0.861594 1.7000563,-0.548587 0.4523876,-1.463509 -0.478799,-4.385592 0.4513628,-5.9606402 -0.4726345,0.7983671 0.265996,4.8288682 1.254264,3.4959272 0.5302617,-0.715196 0.927457,-7.3533539 0.9648442,-5.5106327 0.064017,3.1552265 1.4377213,3.7755637 2.0331023,1.128042 0.2538755,-1.128921 1.2219396,-7.10974476 1.1393782,-5.8679102 -0.1512443,2.2748707 0.9349068,2.0454288 1.4901254,1.727705 0.9103,-0.5209184 2.533504,-1.7060653 2.359314,-3.42810159 -0.123656,-1.22244684 1.096075,2.85190999 1.51605,2.95518539 0.454403,0.1117525 1.702847,-1.3705775 1.852133,-2.94864779 0.117107,-1.2379041 0.505707,4.06554179 0.994815,4.47942129 0.382585,0.323739 2.093792,0.2747917 2.144899,-2.1105377 0.03499,-1.6329451 0.178787,4.7056835 0.73483,5.617353 0.392361,0.6433024 1.43541,1.6918273 1.673913,0.1075791 0.193891,-1.2879177 1.207269,5.6936432 1.488334,4.6228392 0.33001,-1.257279 -0.03373,2.530958 0.306112,3.781224 0.457685,1.683827 1.520414,1.407338 2.527947,-0.0537 0.457368,-0.66323 -0.913014,6.801859 -1.006589,7.887625 -0.08016,0.930142 -0.241397,0.975733 0.217268,2.717091 0.523246,1.986547 1.715282,-2.860189 1.846451,-2.681324 0.565457,0.771065 -0.667218,7.974591 -1.518024,8.088653 -0.145806,0.01953 0.02957,1.555356 0.01982,1.275345 z"
       id="path4273-6"
       inkscape:connector-curvature="0"
       sodipodi:nodetypes="ccssssssssssscssssssssssssssssssssc" />
    <path
       style="color:#000000;clip-rule:nonzero;display:inline;overflow:visible;visibility:visible;opacity:1;isolation:auto;mix-blend-mode:normal;color-interpolation:sRGB;color-interpolation-filters:linearRGB;solid-color:#000000;solid-opacity:1;fill:#002c00;fill-opacity:1;fill-rule:evenodd;stroke:#8b0000;stroke-width:0.20503913;stroke-linecap:butt;stroke-linejoin:bevel;stroke-miterlimit:4;stroke-dasharray:none;stroke-dashoffset:0;stroke-opacity:0;color-rendering:auto;image-rendering:auto;shape-rendering:auto;text-rendering:auto;enable-background:accumulate"
       d="m 11.913919,7.776331 c 0.812931,5.891668 3.739156,9.257596 3.716276,16.631183 -0.01911,6.159982 -2.925975,-6.674029 -3.059881,-7.739923 -0.417531,-3.323545 1.378652,16.829604 2.530422,13.046663 0.412798,-1.355817 -0.670461,3.292576 -1.208194,5.196835 -0.512002,1.813136 -2.960476,-10.698608 -3.482128,-15.036612 0.290207,4.177019 1.239413,16.370888 1.947889,18.052399 0.31629,0.648339 0.415119,0.898674 0.47687,0.785253 -0.06113,0.218687 -1.013087,0.694297 -1.078484,0.667712 C 9.2042442,42.908569 7.1913367,24.036022 7.5796798,23.341201 10.626933,17.889077 10.90399,14.997573 11.364173,13.635185 11.586714,12.976346 8.0103512,21.895748 7.4403192,20.549483 6.9697733,19.438178 7.3100673,17.456599 7.2589047,16.008808 L 6.1475041,28.067869 C 6.2033785,38.616603 7.674874,42.715827 9.416136,45.583506 6.9102779,51.96761 5.6605049,43.945679 4.0924607,39.396722 6.6467623,58.04651 10.369953,60.69497 13.805323,63.895016 c 5.506955,-3.400556 10.11152,-9.53958 10.362435,-20.615465 -1.150441,1.93867 -3.494205,3.899952 -4.884258,2.366166 0.605086,-4.607159 2.61776,-12.280194 2.625704,-18.429496 -0.299781,-5.624497 -0.799778,-11.167353 -3.563515,-15.773726 0.974609,6.29773 1.718723,20.11533 -0.922028,23.745324 0.538441,-9.800405 -0.463922,-13.774636 -0.92452,-16.089072 -2.333614,-8.25649 -3.155269,-6.180116 -4.585222,-11.322416 z m -1.437035,11.886607 c -0.07798,-1.12235 -0.122906,-1.733424 -0.08888,-0.928876 0.0096,0.227442 0.04424,0.557683 0.08888,0.928876 z m 3.375444,27.026483 c 0.19077,-5.23712 0.254617,-5.251836 0.395018,-6.358814 0.501076,6.249679 0.697779,12.453119 -0.488686,18.446437 l -1.324928,-1.419628 0.422428,-3.094644 c 0.179238,-1.43112 0.718073,-3.076479 0.40964,-2.888585 -0.534935,0.325877 -0.597887,-7.955195 -0.545622,-6.921014 0.133638,2.644409 1.000193,7.627778 1.13215,2.236248 z"
       id="rect4340"
       inkscape:connector-curvature="0"
       sodipodi:nodetypes="cssssccccssscccccccccccccsccccccssc" />
    <path
       style="color:#000000;clip-rule:nonzero;display:inline;overflow:visible;visibility:visible;opacity:1;isolation:auto;mix-blend-mode:normal;color-interpolation:sRGB;color-interpolation-filters:linearRGB;solid-color:#000000;solid-opacity:1;fill:#22280b;fill-opacity:1;fill-rule:evenodd;stroke:#8b0000;stroke-width:0.23885229;stroke-linecap:butt;stroke-linejoin:bevel;stroke-miterlimit:4;stroke-dasharray:none;stroke-dashoffset:0;stroke-opacity:0;color-rendering:auto;image-rendering:auto;shape-rendering:auto;text-rendering:auto;enable-background:accumulate"
       d="m 13.420622,48.060179 c 0.11591,-3.69761 0.402222,-8.240597 0.728587,-11.27325 1.109411,7.547375 0.559264,16.674301 0.331585,24.6372 l -2.431039,-2.253808 c 0.331407,-2.686761 0.367251,-4.742062 1.172571,-7.398755 -0.775893,1.851973 -0.996686,-4.455588 -0.72722,-9.391983 0.333468,1.999144 0.450669,5.12696 0.925516,5.680596 z"
       id="rect4346"
       inkscape:connector-curvature="0"
       sodipodi:nodetypes="ccccccc" />
  </g>
  <g
     id="layer1"
     inkscape:label="krzak1"
     inkscape:groupmode="layer">
    <path
       style="color:#000000;clip-rule:nonzero;display:inline;overflow:visible;visibility:visible;opacity:1;isolation:auto;mix-blend-mode:normal;color-interpolation:sRGB;color-interpolation-filters:linearRGB;solid-color:#000000;solid-opacity:1;fill:#00411a;fill-opacity:1;fill-rule:evenodd;stroke:#8b0000;stroke-width:0.18652576;stroke-linecap:butt;stroke-linejoin:bevel;stroke-miterlimit:4;stroke-dasharray:none;stroke-dashoffset:0;stroke-opacity:0;color-rendering:auto;image-rendering:auto;shape-rendering:auto;text-rendering:auto;enable-background:accumulate"
       d="m 11.282814,45.286094 c 0,0.492273 0.682543,-0.720667 0.682543,-0.720667 0.106641,-0.296422 -0.205771,3.681844 -0.757282,5.057805 -0.175666,0.438268 0.321297,3.593084 0.832836,1.305798 0.104199,-0.465913 -0.0052,2.676632 -0.08824,3.160758 -0.105792,0.616853 -0.474574,2.270731 -0.628106,3.339897 -0.06428,0.447609 -1.188553,3.759922 -1.188553,3.759922 -1.6639498,3.447434 -2.4335325,2.911808 -4.3203087,2.911808 -3.0194032,0 -5.46711311,-8.423906 -5.46711311,-18.815321 0,-1.114248 -0.0313313,-4.795669 0.0226418,-5.856712 0.0488104,-0.959543 0.17821955,0.695722 0.26756888,-0.207911 0.0837191,-0.84669 0.0100881,-6.063749 0.1075912,-5.246769 0.17422297,1.45983 0.55096283,0.531462 0.74094453,-0.338387 0.1971667,-0.902746 -0.2086772,-2.705193 0.1967203,-3.67674 -0.2059913,0.492462 0.1159299,2.978621 0.5466525,2.156415 0.2311065,-0.441159 0.4042178,-4.535816 0.420513,-3.399158 0.027901,1.946258 0.6266097,2.328905 0.8860975,0.695817 0.1106474,-0.696359 0.5325645,-4.385548 0.4965808,-3.619539 -0.065917,1.403222 0.4074655,1.261695 0.64945,1.065711 0.396741,-0.321322 1.1041904,-1.052363 1.0282721,-2.114577 -0.053894,-0.75405 0.477708,1.759161 0.660748,1.822865 0.1980449,0.06894 0.7421607,-0.845422 0.8072252,-1.818832 0.051039,-0.763584 0.2204046,2.507772 0.4335756,2.763069 0.1667435,0.199693 0.9125483,0.169501 0.9348225,-1.301856 0.015251,-1.00726 0.077921,2.902636 0.3202646,3.464985 0.1710049,0.396812 0.6256027,1.043582 0.7295505,0.06636 0.084505,-0.794434 0.5261708,3.512045 0.6486688,2.851535 0.14383,-0.775535 -0.0147,1.561186 0.133415,2.332395 0.199475,1.038646 0.662649,0.868097 1.101768,-0.03312 0.199336,-0.409104 -0.397924,4.195633 -0.438708,4.865372 -0.03493,0.573745 -0.105209,0.601867 0.09469,1.676002 0.228049,1.225373 0.74758,-1.764269 0.804748,-1.653938 0.246447,0.475621 -0.290797,4.919015 -0.661608,4.989372 -0.06355,0.01206 0.01289,0.959401 0.0086,0.78668 z"
       id="path4273"
       inkscape:connector-curvature="0"
       sodipodi:nodetypes="ccssssssssssscssssssssssssssssssssc" />
    <path
       style="color:#000000;clip-rule:nonzero;display:inline;overflow:visible;visibility:visible;opacity:1;isolation:auto;mix-blend-mode:normal;color-interpolation:sRGB;color-interpolation-filters:linearRGB;solid-color:#000000;solid-opacity:1;fill:#002b00;fill-opacity:1;fill-rule:evenodd;stroke:#8b0000;stroke-width:0.21151064;stroke-linecap:butt;stroke-linejoin:bevel;stroke-miterlimit:4;stroke-dasharray:none;stroke-dashoffset:0;stroke-opacity:0;color-rendering:auto;image-rendering:auto;shape-rendering:auto;text-rendering:auto;enable-background:accumulate"
       d="m 1.1352365,40.668686 c 1.3013818,2.597167 4.0344358,2.899055 3.6194691,13.01459 C 5.9198077,51.303061 7.6193272,50.558091 5.3608996,43.163724 4.4892995,41.135059 4.025049,36.49211 3.4291444,32.694092 c 0.7444407,2.193687 1.7266537,6.659927 2.4897486,6.471823 0.2057996,-2.86904 0.2928609,-7.086353 0.1726333,-10.211602 0.7668662,3.886365 0.7875098,8.00723 0.7667096,12.141118 1.2880412,-1.63915 1.5658636,-4.94545 2.2130539,-7.642188 -0.4227814,4.246742 -0.7993327,8.544346 -1.9088636,12.035532 l 0.2296384,3.124903 c 1.3371032,-2.488809 2.4443131,-1.682638 3.2482104,-5.638016 -0.31477,1.863889 0.325142,3.807349 -1.4723442,5.547656 -0.3572839,4.15139 0.6190688,2.501039 1.4629382,1.809484 -0.7582578,1.004249 -1.1625209,3.131946 -2.3300851,2.837208 L 7.0195777,60.142384 6.1077262,64.124756 5.3436639,60.245736 C 4.8341471,56.949848 2.7927361,54.334137 3.7177824,51.791778 3.739965,51.730813 1.8900662,47.858183 1.6341586,47.198215 1.4830752,46.808581 3.1764805,48.006617 3.0657073,47.520465 2.5234259,45.140549 1.895866,42.841512 1.1352365,40.668686 Z"
       id="rect4287"
       inkscape:connector-curvature="0"
       sodipodi:nodetypes="cccccccccccccccccsssc" />
  </g>
  <g
     inkscape:groupmode="layer"
     id="layer2"
     inkscape:label="krzak2">
    <path
       style="color:#000000;clip-rule:nonzero;display:inline;overflow:visible;visibility:visible;opacity:1;isolation:auto;mix-blend-mode:normal;color-interpolation:sRGB;color-interpolation-filters:linearRGB;solid-color:#000000;solid-opacity:1;fill:#445500;fill-opacity:1;fill-rule:evenodd;stroke:#8b0000;stroke-width:0.20070721;stroke-linecap:butt;stroke-linejoin:bevel;stroke-miterlimit:4;stroke-dasharray:none;stroke-dashoffset:0;stroke-opacity:0;color-rendering:auto;image-rendering:auto;shape-rendering:auto;text-rendering:auto;enable-background:accumulate"
       d="m 26.371429,43.063023 c 0,0.552885 0.703639,-0.809399 0.703639,-0.809399 0.109936,-0.332921 -0.212132,4.135176 -0.780689,5.680554 -0.181095,0.492232 0.331228,4.035487 0.858578,1.466577 0.10742,-0.52328 -0.0054,3.006195 -0.09097,3.54993 -0.109062,0.692804 -0.489242,2.550319 -0.64752,3.751127 -0.06626,0.502722 -1.225288,4.222867 -1.225288,4.222867 -1.715378,3.871905 -2.508747,3.270329 -4.453838,3.270329 -3.112726,0 -5.636088,-9.461111 -5.636088,-21.131985 0,-1.251441 -0.0323,-5.386141 0.02334,-6.577828 0.05032,-1.077688 0.183728,0.781384 0.275839,-0.23351 0.08631,-0.95094 0.0104,-6.810357 0.110917,-5.892787 0.179607,1.639574 0.567992,0.596899 0.763845,-0.38005 0.203261,-1.013899 -0.215127,-3.038275 0.2028,-4.129445 -0.212358,0.553097 0.119513,3.345369 0.563548,2.421927 0.23825,-0.495476 0.416712,-5.094293 0.433511,-3.817684 0.02876,2.185893 0.645976,2.615654 0.913484,0.781491 0.114068,-0.7821 0.549025,-4.925525 0.511929,-4.0652 -0.06795,1.575995 0.420059,1.417042 0.669523,1.196927 0.409003,-0.360885 1.138318,-1.181937 1.060053,-2.374936 -0.05556,-0.846894 0.492474,1.97576 0.681171,2.047308 0.204166,0.07741 0.765099,-0.949515 0.832175,-2.042779 0.05262,-0.857603 0.227216,2.816545 0.446976,3.103274 0.171897,0.224283 0.940752,0.190372 0.963715,-1.462148 0.01572,-1.131279 0.08033,3.260028 0.330164,3.891618 0.17629,0.44567 0.644938,1.172074 0.752098,0.07453 0.08712,-0.892251 0.542434,3.944469 0.668718,3.202633 0.148275,-0.871023 -0.01516,1.75341 0.137538,2.619574 0.205641,1.166535 0.683131,0.974984 1.135821,-0.0372 0.205499,-0.459475 -0.410222,4.712227 -0.452266,5.464429 -0.03601,0.644388 -0.108461,0.675973 0.09762,1.882361 0.235098,1.376249 0.770686,-1.981496 0.829621,-1.857581 0.254063,0.534182 -0.299784,5.524677 -0.682057,5.603696 -0.06551,0.01353 0.01329,1.077528 0.0089,0.88354 z"
       id="path4273-5"
       inkscape:connector-curvature="0"
       sodipodi:nodetypes="ccssssssssssscssssssssssssssssssssc" />
    <path
       style="color:#000000;clip-rule:nonzero;display:inline;overflow:visible;visibility:visible;opacity:1;isolation:auto;mix-blend-mode:normal;color-interpolation:sRGB;color-interpolation-filters:linearRGB;solid-color:#000000;solid-opacity:1;fill:#2b2200;fill-opacity:1;fill-rule:evenodd;stroke:#8b0000;stroke-width:0.21815054;stroke-linecap:butt;stroke-linejoin:bevel;stroke-miterlimit:4;stroke-dasharray:none;stroke-dashoffset:0;stroke-opacity:0;color-rendering:auto;image-rendering:auto;shape-rendering:auto;text-rendering:auto;enable-background:accumulate"
       d="m 16.254578,38.896193 c 1.301012,2.763577 4.033289,3.084808 3.61844,13.848482 1.164771,-2.532723 2.863807,-3.325426 0.606022,-11.193578 -0.871353,-2.158648 -1.335472,-7.099087 -1.931206,-11.140462 0.744228,2.334246 1.726162,7.086655 2.48904,6.886498 0.205742,-3.052869 0.292778,-7.540403 0.172585,-10.865899 0.766648,4.135379 0.787285,8.520285 0.766491,12.919047 1.287675,-1.744178 1.565418,-5.262323 2.212425,-8.131852 -0.422661,4.518847 -0.799106,9.091814 -1.908321,12.806695 l 0.229573,3.325125 c 1.336723,-2.648277 2.443618,-1.79045 3.247287,-5.999264 -0.314681,1.983315 0.32505,4.051299 -1.471925,5.903115 -0.357183,4.417384 0.618892,2.661291 1.462521,1.925425 -0.758042,1.068595 -1.16219,3.332621 -2.329422,3.018999 l -1.280842,7.419119 -0.911592,4.237537 -0.763845,-4.127564 c -0.509373,-3.507068 -2.550203,-6.290377 -1.62542,-8.995633 0.02218,-0.06486 -1.827197,-4.185635 -2.083031,-4.88789 -0.15104,-0.414599 1.541884,0.8602 1.431142,0.342897 -0.542128,-2.532405 -1.169509,-4.978749 -1.929922,-7.290797 z"
       id="rect4287-0"
       inkscape:connector-curvature="0"
       sodipodi:nodetypes="cccccccccccccccccsssc" />
  </g>
</svg>
