<?xml version="1.0" encoding="UTF-8" standalone="no"?>
<!-- Created with Inkscape (http://www.inkscape.org/) -->

<svg
   xmlns:dc="http://purl.org/dc/elements/1.1/"
   xmlns:cc="http://creativecommons.org/ns#"
   xmlns:rdf="http://www.w3.org/1999/02/22-rdf-syntax-ns#"
   xmlns:svg="http://www.w3.org/2000/svg"
   xmlns="http://www.w3.org/2000/svg"
   xmlns:sodipodi="http://sodipodi.sourceforge.net/DTD/sodipodi-0.dtd"
   xmlns:inkscape="http://www.inkscape.org/namespaces/inkscape"
   width="48"
   height="48"
   id="svg3368"
   version="1.1"
   inkscape:version="0.91 r"
   viewBox="0 0 48 48"
   sodipodi:docname="magnez.svg">
  <defs
     id="defs3370" />
  <sodipodi:namedview
     id="base"
     pagecolor="#ffffff"
     bordercolor="#666666"
     borderopacity="1.0"
     inkscape:pageopacity="0.0"
     inkscape:pageshadow="2"
     inkscape:zoom="4.9497475"
     inkscape:cx="-9.9220503"
     inkscape:cy="14.692481"
     inkscape:current-layer="layer1"
     showgrid="true"
     inkscape:grid-bbox="true"
     inkscape:document-units="px"
     inkscape:window-width="1366"
     inkscape:window-height="715"
     inkscape:window-x="0"
     inkscape:window-y="0"
     inkscape:window-maximized="1" />
  <metadata
     id="metadata3373">
    <rdf:RDF>
      <cc:Work
         rdf:about="">
        <dc:format>image/svg+xml</dc:format>
        <dc:type
           rdf:resource="http://purl.org/dc/dcmitype/StillImage" />
        <dc:title></dc:title>
      </cc:Work>
    </rdf:RDF>
  </metadata>
  <g
     id="layer1"
     inkscape:label="Layer 1"
     inkscape:groupmode="layer">
    <path
       style="fill:#d40000"
       d="M 14.837505,4.3015353 C 5.2015339,11.301888 -0.40413835,19.565856 1.9147732,30.314401 5.9922466,40.082407 21.334962,44.787172 31.144682,39.883527 42.696711,33.724077 46.228372,24.95146 44.067415,13.870664 l -6.509497,-2.131043 c 0.730613,5.318624 -1.144934,11.910066 -9.274766,18.370939 -7.885183,4.800439 -15.291906,0.500447 -16.110064,-4.465055 -1.513805,-9.018899 1.878416,-13.736169 8.407784,-19.4637378 z"
       id="rect3387"
       inkscape:connector-curvature="0"
       sodipodi:nodetypes="ccccccccc" />
    <path
       style="fill:#800000"
       d="m 1.5723405,27.934923 c 1.8757741,3.909823 5.9245464,13.7015 22.7887695,12.252866 6.598065,-0.454144 14.473627,-8.171915 14.42389,-8.495211 2.114078,-1.97576 5.549109,-5.588172 5.675426,-13.171294 l -0.365887,-4.643818 c 1.047498,1.290678 1.405633,2.226312 1.89558,4.353314 1.124116,4.769446 0.779715,10.836211 -1.272496,15.816486 -1.784407,3.486864 -3.781317,6.939686 -8.654089,9.63623 -4.887047,2.075037 -5.106251,2.996237 -13.185255,3.294097 C 14.163397,46.2752 7.8863592,44.894068 4.3038712,39.017133 2.4281297,35.925929 1.7022735,32.288961 1.5723405,27.934923 Z"
       id="rect3392"
       inkscape:connector-curvature="0"
       sodipodi:nodetypes="ccccccccccc" />
    <path
       style="fill:#800000"
       d="m 20.491986,6.1493958 1.088359,8.9932802 c -4.306782,1.95584 -7.374928,5.91709 -8.477742,13.060306 -1.377387,-2.42214 -1.322123,-4.992697 -1.317487,-7.675794 0.516566,-8.465892 4.999855,-11.1854629 8.70687,-14.3777922 z"
       id="rect3395"
       inkscape:connector-curvature="0"
       sodipodi:nodetypes="ccccc" />
    <path
       style="fill:#f2f2f2"
       d="M 14.878074,4.2701394 20.548707,6.1536 15.222363,11.054648 9.734001,8.4826106 c 1.568423,-1.466843 3.201469,-2.9059918 5.144073,-4.2124712 z"
       id="rect3398"
       inkscape:connector-curvature="0"
       sodipodi:nodetypes="ccccc" />
    <path
       style="fill:#f2f2f2"
       d="m 37.562036,11.677113 6.587436,2.205359 c 0.302336,2.730127 0.508567,5.450644 0.05727,8.105409 l -7.675795,-2.090795 c 1.460436,-4.503267 0.889799,-5.799578 1.031081,-8.219973 z"
       id="rect3401"
       inkscape:connector-curvature="0"
       sodipodi:nodetypes="ccccc" />
    <path
       style="fill:#808080"
       d="m 15.141355,11.014142 5.346597,-4.7795324 c 0.418169,2.9651569 0.859308,5.9165334 1.093622,8.9920044 -1.845448,0.663706 -3.6389,2.221695 -5.44937,4.475647 z"
       id="rect3404"
       inkscape:connector-curvature="0"
       sodipodi:nodetypes="ccccc" />
    <path
       style="fill:#808080"
       d="m 44.149472,13.882471 c 0.807094,1.116711 1.530058,2.007201 2.148076,4.582564 0.710397,2.035314 0.390279,10.453084 -0.429615,12.029228 0.527287,-3.344389 -0.199578,-6.103507 -1.68982,-8.506383 z"
       id="rect3407"
       inkscape:connector-curvature="0"
       sodipodi:nodetypes="ccccc" />
  </g>
</svg>
