<?xml version="1.0" encoding="UTF-8" standalone="no"?>
<!-- Created with Inkscape (http://www.inkscape.org/) -->

<svg
   xmlns:dc="http://purl.org/dc/elements/1.1/"
   xmlns:cc="http://creativecommons.org/ns#"
   xmlns:rdf="http://www.w3.org/1999/02/22-rdf-syntax-ns#"
   xmlns:svg="http://www.w3.org/2000/svg"
   xmlns="http://www.w3.org/2000/svg"
   xmlns:xlink="http://www.w3.org/1999/xlink"
   xmlns:sodipodi="http://sodipodi.sourceforge.net/DTD/sodipodi-0.dtd"
   xmlns:inkscape="http://www.inkscape.org/namespaces/inkscape"
   width="64"
   height="64"
   id="svg3494"
   version="1.1"
   inkscape:version="0.91 r"
   viewBox="0 0 64 64"
   sodipodi:docname="opony.svg">
  <defs
     id="defs3496">
    <linearGradient
       inkscape:collect="always"
       id="linearGradient3542">
      <stop
         style="stop-color:#333333;stop-opacity:1;"
         offset="0"
         id="stop3544" />
      <stop
         style="stop-color:#000000;stop-opacity:1"
         offset="1"
         id="stop3546" />
    </linearGradient>
    <linearGradient
       gradientTransform="matrix(0.94926414,0,0,0.94926414,0.77634253,46.310845)"
       inkscape:collect="always"
       xlink:href="#linearGradient3542"
       id="linearGradient3548-2"
       x1="30.598438"
       y1="-3.2394269"
       x2="30.084179"
       y2="22.087852"
       gradientUnits="userSpaceOnUse" />
    <linearGradient
       gradientTransform="matrix(0.94926414,0,0,0.94926414,0.75890169,32.243464)"
       inkscape:collect="always"
       xlink:href="#linearGradient3542"
       id="linearGradient3548-2-4"
       x1="30.598438"
       y1="-3.2394269"
       x2="30.084179"
       y2="22.087852"
       gradientUnits="userSpaceOnUse" />
    <linearGradient
       gradientTransform="matrix(0.94926414,0,0,0.94926414,0.77634253,18.3507)"
       inkscape:collect="always"
       xlink:href="#linearGradient3542"
       id="linearGradient3548-2-5"
       x1="30.598438"
       y1="-3.2394269"
       x2="30.084179"
       y2="22.087852"
       gradientUnits="userSpaceOnUse" />
    <linearGradient
       gradientTransform="matrix(0.94926414,0,0,0.94926414,0.41371126,4.4559137)"
       inkscape:collect="always"
       xlink:href="#linearGradient3542"
       id="linearGradient3548-2-57"
       x1="30.598438"
       y1="-3.2394269"
       x2="30.084179"
       y2="22.087852"
       gradientUnits="userSpaceOnUse" />
  </defs>
  <sodipodi:namedview
     id="base"
     pagecolor="#ffffff"
     bordercolor="#666666"
     borderopacity="1.0"
     inkscape:pageopacity="0.0"
     inkscape:pageshadow="2"
     inkscape:zoom="3.8890873"
     inkscape:cx="17.751704"
     inkscape:cy="42.219452"
     inkscape:current-layer="layer1"
     showgrid="true"
     inkscape:document-units="px"
     inkscape:grid-bbox="true"
     inkscape:window-width="1366"
     inkscape:window-height="715"
     inkscape:window-x="0"
     inkscape:window-y="0"
     inkscape:window-maximized="1" />
  <metadata
     id="metadata3499">
    <rdf:RDF>
      <cc:Work
         rdf:about="">
        <dc:format>image/svg+xml</dc:format>
        <dc:type
           rdf:resource="http://purl.org/dc/dcmitype/StillImage" />
        <dc:title />
      </cc:Work>
    </rdf:RDF>
  </metadata>
  <g
     id="layer1"
     inkscape:label="Layer 1"
     inkscape:groupmode="layer">
    <path
       style="fill:url(#linearGradient3548-2);fill-opacity:1;stroke:#000000;stroke-width:0.61806351;stroke-miterlimit:4;stroke-dasharray:none;stroke-opacity:0"
       d="m 3.9306675,47.548123 c 18.4499055,1.674104 36.8998095,1.074461 55.3497145,0 3.072402,2.23866 2.147236,12.460974 0,14.005402 -18.197808,1.2721 -36.377822,2.63399 -55.3497145,0 -2.8187764,-2.170599 -2.2013883,-12.97983 0,-14.005402 z"
       id="rect3517-6-6-4"
       inkscape:connector-curvature="0"
       sodipodi:nodetypes="ccccc" />
    <path
       style="fill:#000000;stroke:#000000;stroke-width:0.61415404;stroke-miterlimit:4;stroke-dasharray:none;stroke-opacity:0"
       d="M 3.9681691,47.557107 59.394603,47.450605 c 0.466893,0.378689 0.670469,0.757377 0.731703,1.136067 -18.971547,5.000307 -37.823756,5.185431 -56.8898392,0.03551 -0.055457,-0.494456 0.4085395,-0.746961 0.7317023,-1.065067 z"
       id="rect4333-5-0-0"
       inkscape:connector-curvature="0"
       sodipodi:nodetypes="ccccc" />
    <path
       style="fill:url(#linearGradient3548-2-4);fill-opacity:1;stroke:#000000;stroke-width:0.61806351;stroke-miterlimit:4;stroke-dasharray:none;stroke-opacity:0"
       d="m 3.9132267,33.480743 c 18.4499073,1.674103 36.8998093,1.074461 55.3497143,0 3.072404,2.238659 2.147237,12.460973 0,14.005402 -18.197807,1.272098 -36.377821,2.633988 -55.3497143,0 -2.8187754,-2.1706 -2.2013874,-12.979832 0,-14.005402 z"
       id="rect3517-6-6-4-2"
       inkscape:connector-curvature="0"
       sodipodi:nodetypes="ccccc" />
    <path
       style="fill:#000000;stroke:#000000;stroke-width:0.61415404;stroke-miterlimit:4;stroke-dasharray:none;stroke-opacity:0"
       d="M 3.9507283,33.489727 59.377164,33.383223 c 0.466892,0.37869 0.670469,0.757379 0.731702,1.136067 C 41.518387,38.850409 22.62928,39.475785 3.219026,34.5548 3.16357,34.060343 3.6275656,33.807839 3.9507283,33.489734 Z"
       id="rect4333-5-0-0-0"
       inkscape:connector-curvature="0"
       sodipodi:nodetypes="ccccc" />
    <path
       style="fill:url(#linearGradient3548-2-5);fill-opacity:1;stroke:#000000;stroke-width:0.61806351;stroke-miterlimit:4;stroke-dasharray:none;stroke-opacity:0"
       d="m 3.9306675,19.587978 c 18.4499055,1.674104 36.8998095,1.074462 55.3497145,0 3.072402,2.238661 2.147236,12.460974 0,14.005402 -18.197808,1.2721 -36.377822,2.633989 -55.3497145,0 -2.8187764,-2.170599 -2.2013883,-12.979831 0,-14.005402 z"
       id="rect3517-6-6-4-5"
       inkscape:connector-curvature="0"
       sodipodi:nodetypes="ccccc" />
    <path
       style="fill:#000000;stroke:#000000;stroke-width:0.61415404;stroke-miterlimit:4;stroke-dasharray:none;stroke-opacity:0"
       d="M 3.9681691,19.596962 59.394603,19.490461 c 0.466893,0.378687 0.670469,0.757376 0.731703,1.136066 -19.167874,4.604523 -37.989805,4.856699 -56.8898392,0.03551 -0.055457,-0.494456 0.4085395,-0.746961 0.7317023,-1.065067 z"
       id="rect4333-5-0-0-3"
       inkscape:connector-curvature="0"
       sodipodi:nodetypes="ccccc" />
    <path
       style="fill:url(#linearGradient3548-2-57);fill-opacity:1;stroke:#000000;stroke-width:0.61806351;stroke-miterlimit:4;stroke-dasharray:none;stroke-opacity:0"
       d="m 3.5680401,5.6931922 c 18.4499069,1.6741033 36.8998079,1.0744606 55.3497139,0 3.072403,2.2386589 2.147235,12.4609738 0,14.0054028 -18.197807,1.272099 -36.377821,2.633988 -55.3497139,0 -2.81877355,-2.170601 -2.2013911,-12.9798316 0,-14.0054028 z"
       id="rect3517-6-6-4-27"
       inkscape:connector-curvature="0"
       sodipodi:nodetypes="ccccc" />
    <path
       style="fill:#000000;stroke:#000000;stroke-width:0.61415404;stroke-miterlimit:4;stroke-dasharray:none;stroke-opacity:0"
       d="M 3.6055455,5.7021761 C 9.9633501,1.379778 50.680469,1.0996132 59.031977,5.5956733 59.498867,5.9743624 59.702445,6.3530507 59.763678,6.7317389 53.204504,11.921298 7.2867379,12.347875 2.8738432,6.767242 2.8184058,6.2727855 3.2823781,6.0202802 3.6055455,5.7021761 Z"
       id="rect4333-5-0-0-37"
       inkscape:connector-curvature="0"
       sodipodi:nodetypes="ccccc" />
  </g>
</svg>
