<?xml version="1.0" encoding="UTF-8" standalone="no"?>
<!-- Created with Inkscape (http://www.inkscape.org/) -->

<svg
   xmlns:dc="http://purl.org/dc/elements/1.1/"
   xmlns:cc="http://creativecommons.org/ns#"
   xmlns:rdf="http://www.w3.org/1999/02/22-rdf-syntax-ns#"
   xmlns:svg="http://www.w3.org/2000/svg"
   xmlns="http://www.w3.org/2000/svg"
   xmlns:sodipodi="http://sodipodi.sourceforge.net/DTD/sodipodi-0.dtd"
   xmlns:inkscape="http://www.inkscape.org/namespaces/inkscape"
   width="64"
   height="64"
   id="svg3352"
   version="1.1"
   inkscape:version="0.91 r"
   viewBox="0 0 64 64"
   sodipodi:docname="rock.svg">
  <defs
     id="defs3354" />
  <sodipodi:namedview
     id="base"
     pagecolor="#ffffff"
     bordercolor="#666666"
     borderopacity="1.0"
     inkscape:pageopacity="0.0"
     inkscape:pageshadow="2"
     inkscape:zoom="1.9445436"
     inkscape:cx="3.5188939"
     inkscape:cy="104.44507"
     inkscape:current-layer="layer1"
     showgrid="true"
     inkscape:document-units="px"
     inkscape:grid-bbox="true"
     inkscape:window-width="1366"
     inkscape:window-height="715"
     inkscape:window-x="0"
     inkscape:window-y="0"
     inkscape:window-maximized="1" />
  <metadata
     id="metadata3357">
    <rdf:RDF>
      <cc:Work
         rdf:about="">
        <dc:format>image/svg+xml</dc:format>
        <dc:type
           rdf:resource="http://purl.org/dc/dcmitype/StillImage" />
        <dc:title />
      </cc:Work>
    </rdf:RDF>
  </metadata>
  <g
     id="layer1"
     inkscape:label="Layer 1"
     inkscape:groupmode="layer">
    <path
       style="color:#000000;clip-rule:nonzero;display:inline;overflow:visible;visibility:visible;opacity:1;isolation:auto;mix-blend-mode:normal;color-interpolation:sRGB;color-interpolation-filters:linearRGB;solid-color:#000000;solid-opacity:1;fill:#917c6f;fill-opacity:1;fill-rule:evenodd;stroke:#000000;stroke-width:0.30000001;stroke-linecap:butt;stroke-linejoin:bevel;stroke-miterlimit:4;stroke-dasharray:none;stroke-dashoffset:0;stroke-opacity:0;color-rendering:auto;image-rendering:auto;shape-rendering:auto;text-rendering:auto;enable-background:accumulate"
       d="M 0.54545436,23.454546 0.59999999,8.1636363 9.9636938,4.0432792 30.363636,0.36363641 42.213271,1.7211195 50.604673,7.7980986 64.250503,15.116492 63.818181,42.545454 59.189097,54.596838 53.083513,63.804027 23.454545,63.636363 C 22.936585,60.607654 20.619532,57.425898 17.55155,54.18026 L 12.889459,47.572205 10.209675,40.95922 5.1592062,34.506516 Z"
       id="rect4216"
       inkscape:connector-curvature="0"
       sodipodi:nodetypes="cccccccccccccccc" />
    <path
       style="color:#000000;clip-rule:nonzero;display:inline;overflow:visible;visibility:visible;opacity:1;isolation:auto;mix-blend-mode:normal;color-interpolation:sRGB;color-interpolation-filters:linearRGB;solid-color:#000000;solid-opacity:1;fill:#241c1c;fill-opacity:1;fill-rule:evenodd;stroke:#000000;stroke-width:0.30000001;stroke-linecap:butt;stroke-linejoin:bevel;stroke-miterlimit:4;stroke-dasharray:none;stroke-dashoffset:0;stroke-opacity:0;color-rendering:auto;image-rendering:auto;shape-rendering:auto;text-rendering:auto;enable-background:accumulate"
       d="m 0.90908891,22.545456 c 2.07426079,0.340364 5.03050019,1.771132 7.16383179,2.273941 2.2880143,0.539265 6.6732163,6.66351 8.6942893,6.628408 9.810734,-0.170393 9.372119,-0.329226 21.749346,-1.460127 3.644645,-0.333009 9.801783,-1.028676 10.648174,-1.284123 l 2.927287,-0.883479 12.28351,-12.700195 -14.011891,17.061938 -1.120115,9.435757 1.675579,5.549929 -0.885184,4.527166 3.246205,12.143705 -4.367468,-12.050045 0.655498,-4.592123 -2.566879,-5.300239 1.32898,-10.19001 L 28.93375,33.405578 14.711995,32.290693 5.4545435,25.636365 Z"
       id="rect4219"
       inkscape:connector-curvature="0"
       sodipodi:nodetypes="cssssccccccccccccccc" />
    <path
       style="color:#000000;clip-rule:nonzero;display:inline;overflow:visible;visibility:visible;opacity:1;isolation:auto;mix-blend-mode:normal;color-interpolation:sRGB;color-interpolation-filters:linearRGB;solid-color:#000000;solid-opacity:1;fill:#ac9d93;fill-opacity:1;fill-rule:evenodd;stroke:#000000;stroke-width:0.10996676;stroke-linecap:butt;stroke-linejoin:bevel;stroke-miterlimit:4;stroke-dasharray:none;stroke-dashoffset:0;stroke-opacity:0;color-rendering:auto;image-rendering:auto;shape-rendering:auto;text-rendering:auto;enable-background:accumulate"
       d="M 5.3310308,34.664475 C 2.576035,28.827182 2.0755658,28.91518 0.90543425,22.611564 6.7548922,25.839615 10.485144,28.885846 14.420555,32.113896 l 15.00884,1.341178 4.470868,-0.565426 5.544544,1.720284 8.605994,0.307292 -2.990125,4.691863 -7.26208,0.709095 5.796954,1.589862 -1.592381,2.498635 c 1.328618,2.771345 3.059703,2.322951 4.603838,3.37016 l -7.060667,-0.319195 -3.240465,2.33092 -10.85097,-3.46715 c 1.92254,1.277863 6.755994,2.837427 1.726569,3.442519 l -6.600813,-0.01782 C 20.30576,48.97936 19.076012,48.173857 17.447718,47.352182 L 14.97337,45.679266 13.551107,44.005103 10.870632,42.371516 Z"
       id="rect4216-3"
       inkscape:connector-curvature="0"
       sodipodi:nodetypes="cccccccccccccccccccccc" />
    <path
       style="color:#000000;clip-rule:nonzero;display:inline;overflow:visible;visibility:visible;opacity:1;isolation:auto;mix-blend-mode:normal;color-interpolation:sRGB;color-interpolation-filters:linearRGB;solid-color:#000000;solid-opacity:1;fill:#241c1c;fill-opacity:1;fill-rule:evenodd;stroke:#000000;stroke-width:0.30000001;stroke-linecap:butt;stroke-linejoin:bevel;stroke-miterlimit:4;stroke-dasharray:none;stroke-dashoffset:0;stroke-opacity:0;color-rendering:auto;image-rendering:auto;shape-rendering:auto;text-rendering:auto;enable-background:accumulate"
       d="m 21.084639,45.100965 c 3.757718,1.317157 7.268132,1.838411 10.432349,2.835742 9.259025,2.918356 4.944942,-0.696675 8.88736,-0.763107 -1.357986,0.69499 -2.500953,1.784185 -3.264698,3.568622 L 30.50753,49.50069 c -4.212349,-0.248747 -6.503044,-2.68181 -9.422891,-4.399725 z"
       id="rect4281"
       inkscape:connector-curvature="0"
       sodipodi:nodetypes="cscccc" />
    <path
       style="color:#000000;clip-rule:nonzero;display:inline;overflow:visible;visibility:visible;opacity:1;isolation:auto;mix-blend-mode:normal;color-interpolation:sRGB;color-interpolation-filters:linearRGB;solid-color:#000000;solid-opacity:1;fill:#c8beb7;fill-opacity:1;fill-rule:evenodd;stroke:#000000;stroke-width:0.30000001;stroke-linecap:butt;stroke-linejoin:bevel;stroke-miterlimit:4;stroke-dasharray:none;stroke-dashoffset:0;stroke-opacity:0;color-rendering:auto;image-rendering:auto;shape-rendering:auto;text-rendering:auto;enable-background:accumulate"
       d="M 0.51426007,8.2028468 10.015385,3.9004305 30.322886,0.05879464 42.615793,1.0936641 l 8.02975,6.7647078 13.752261,7.4545871 -12.691102,12.839502 -4.06833,0.968376 c -9.580398,1.41759 -19.866949,2.527386 -31.81954,2.047221 L 9.4369786,25.40965 0.62927639,22.501988 Z"
       id="rect4284"
       inkscape:connector-curvature="0"
       sodipodi:nodetypes="cccccccccccc" />
    <path
       style="color:#000000;clip-rule:nonzero;display:inline;overflow:visible;visibility:visible;opacity:1;isolation:auto;mix-blend-mode:normal;color-interpolation:sRGB;color-interpolation-filters:linearRGB;solid-color:#000000;solid-opacity:1;fill:#917c6f;fill-opacity:1;fill-rule:evenodd;stroke:#000000;stroke-width:0.30000001;stroke-linecap:butt;stroke-linejoin:bevel;stroke-miterlimit:4;stroke-dasharray:none;stroke-dashoffset:0;stroke-opacity:0;color-rendering:auto;image-rendering:auto;shape-rendering:auto;text-rendering:auto;enable-background:accumulate"
       d="m 37.755791,17.675128 5.497553,0.942962 6.138493,-2.007498 c -1.141471,1.498982 -0.766165,3.268818 -8.352615,3.616911 -2.760134,1.783802 -2.273793,3.567603 -0.946657,5.351405 -3.067551,-0.01914 -2.980095,-1.615785 -3.247025,-3.035236 -3.557235,2.829827 -8.094833,3.502856 -12.852614,3.691483 l 7.977446,-3.56492 c 2.674555,-3.71676 3.992461,-3.702739 5.785419,-4.995107 z"
       id="rect4287"
       inkscape:connector-curvature="0"
       sodipodi:nodetypes="ccccccccc" />
    <path
       style="color:#000000;clip-rule:nonzero;display:inline;overflow:visible;visibility:visible;opacity:1;isolation:auto;mix-blend-mode:normal;color-interpolation:sRGB;color-interpolation-filters:linearRGB;solid-color:#000000;solid-opacity:1;fill:#917c6f;fill-opacity:1;fill-rule:evenodd;stroke:#000000;stroke-width:0.30000001;stroke-linecap:butt;stroke-linejoin:bevel;stroke-miterlimit:4;stroke-dasharray:none;stroke-dashoffset:0;stroke-opacity:0;color-rendering:auto;image-rendering:auto;shape-rendering:auto;text-rendering:auto;enable-background:accumulate"
       d="m 8.9603178,14.792417 5.4777812,-3.365548 8.823026,1.40059 L 30.5937,8.6938458 38.72667,6.3164085 45.237103,3.3829069 50.548054,7.7924173 47.91169,12.898464 39.783337,13.056348 28.624838,16.292413 15.071263,15.339772 7.0512269,18.35301 c -3.4656565,0.06893 -4.0460553,-2.747398 -5.2167475,-4.973432 2.4920455,1.405075 4.8761508,1.946628 7.1258384,1.412839 z"
       id="rect4290"
       inkscape:connector-curvature="0"
       sodipodi:nodetypes="cccccccccccccc" />
    <path
       style="color:#000000;clip-rule:nonzero;display:inline;overflow:visible;visibility:visible;opacity:1;isolation:auto;mix-blend-mode:normal;color-interpolation:sRGB;color-interpolation-filters:linearRGB;solid-color:#000000;solid-opacity:1;fill:#241f1c;fill-opacity:1;fill-rule:evenodd;stroke:#000000;stroke-width:0.30000001;stroke-linecap:butt;stroke-linejoin:bevel;stroke-miterlimit:4;stroke-dasharray:none;stroke-dashoffset:0;stroke-opacity:0;color-rendering:auto;image-rendering:auto;shape-rendering:auto;text-rendering:auto;enable-background:accumulate"
       d="m 17.727272,14.909091 10.716432,-0.302552 11.556295,-1.697448 -10.909091,3.545455 -14,-0.818182 z"
       id="rect4293"
       inkscape:connector-curvature="0"
       sodipodi:nodetypes="cccccc" />
    <path
       style="color:#000000;clip-rule:nonzero;display:inline;overflow:visible;visibility:visible;opacity:1;isolation:auto;mix-blend-mode:normal;color-interpolation:sRGB;color-interpolation-filters:linearRGB;solid-color:#000000;solid-opacity:1;fill:#241c1c;fill-opacity:1;fill-rule:evenodd;stroke:#000000;stroke-width:0.30000001;stroke-linecap:butt;stroke-linejoin:bevel;stroke-miterlimit:4;stroke-dasharray:none;stroke-dashoffset:0;stroke-opacity:0;color-rendering:auto;image-rendering:auto;shape-rendering:auto;text-rendering:auto;enable-background:accumulate"
       d="M 30.545455,8.6363636 38.818182,6.3636364 32.623443,9.6207657 22.701431,13.050577 Z"
       id="rect4296"
       inkscape:connector-curvature="0"
       sodipodi:nodetypes="ccccc" />
    <path
       style="color:#000000;clip-rule:nonzero;display:inline;overflow:visible;visibility:visible;opacity:1;isolation:auto;mix-blend-mode:normal;color-interpolation:sRGB;color-interpolation-filters:linearRGB;solid-color:#000000;solid-opacity:1;fill:#6c5d53;fill-opacity:1;fill-rule:evenodd;stroke:#000000;stroke-width:0.30000001;stroke-linecap:butt;stroke-linejoin:bevel;stroke-miterlimit:4;stroke-dasharray:none;stroke-dashoffset:0;stroke-opacity:0;color-rendering:auto;image-rendering:auto;shape-rendering:auto;text-rendering:auto;enable-background:accumulate"
       d="m 14.545455,20.363636 c 2.142456,-0.299074 3.906407,0.411199 5.818182,0.727273 l -4.911929,0.564674 c -2.276951,-0.758347 -2.426297,1.920206 -3.633526,2.889871 0.727569,-1.393939 0.09191,-2.787879 2.727273,-4.181818 z"
       id="rect4311"
       inkscape:connector-curvature="0"
       sodipodi:nodetypes="ccccc" />
    <path
       style="color:#000000;clip-rule:nonzero;display:inline;overflow:visible;visibility:visible;opacity:1;isolation:auto;mix-blend-mode:normal;color-interpolation:sRGB;color-interpolation-filters:linearRGB;solid-color:#000000;solid-opacity:1;fill:#483e37;fill-opacity:1;fill-rule:evenodd;stroke:#000000;stroke-width:0.30000001;stroke-linecap:butt;stroke-linejoin:bevel;stroke-miterlimit:4;stroke-dasharray:none;stroke-dashoffset:0;stroke-opacity:0;color-rendering:auto;image-rendering:auto;shape-rendering:auto;text-rendering:auto;enable-background:accumulate"
       d="m 57.725625,52.943422 6.171114,-10.670884 -4.49977,12.342227 -6.556809,9.385236 z"
       id="rect4314"
       inkscape:connector-curvature="0"
       sodipodi:nodetypes="ccccc" />
    <path
       style="color:#000000;clip-rule:nonzero;display:inline;overflow:visible;visibility:visible;opacity:1;isolation:auto;mix-blend-mode:normal;color-interpolation:sRGB;color-interpolation-filters:linearRGB;solid-color:#000000;solid-opacity:1;fill:#483e37;fill-opacity:1;fill-rule:evenodd;stroke:#000000;stroke-width:0.30000001;stroke-linecap:butt;stroke-linejoin:bevel;stroke-miterlimit:4;stroke-dasharray:none;stroke-dashoffset:0;stroke-opacity:0;color-rendering:auto;image-rendering:auto;shape-rendering:auto;text-rendering:auto;enable-background:accumulate"
       d="m 23.363636,62.499999 8.655156,0.186419 5.002184,-4.592592 c -0.755292,1.585479 -2.566649,3.382172 -1.79232,4.661727 l 6.589776,0.141934 c 3.831216,-0.636566 2.639541,-9.599899 2.821422,-11.604966 l 0.434896,6.24773 c 1.6507,1.572349 2.496339,1.54029 2.980855,0.767331 0.118675,-0.189324 -1.068448,-1.877857 -1.068448,-1.877857 0.04791,0.09581 0.687272,0.857262 1.127484,0.952696 0.310675,0.06735 0.481827,-0.43901 0.452746,-0.683995 -0.139417,-1.174452 0.308324,-2.575918 0.614859,-3.613875 -0.353878,1.798302 -0.06163,6.132713 -0.06163,6.132713 0.01981,1.059701 -2.890772,0.938831 -3.850638,1.12758 l 0.183135,2.630928 7.45598,0.160591 0.454546,0.59091 -29.954544,0.04545 c 0.19167,-0.389772 -0.04546,-1.272728 -0.04546,-1.272724 z"
       id="rect4317"
       inkscape:connector-curvature="0"
       sodipodi:nodetypes="cccccccscsscscccccc" />
    <path
       style="color:#000000;clip-rule:nonzero;display:inline;overflow:visible;visibility:visible;opacity:1;isolation:auto;mix-blend-mode:normal;color-interpolation:sRGB;color-interpolation-filters:linearRGB;solid-color:#000000;solid-opacity:1;fill:#6c5d53;fill-opacity:1;fill-rule:evenodd;stroke:#000000;stroke-width:0.19512314;stroke-linecap:butt;stroke-linejoin:bevel;stroke-miterlimit:4;stroke-dasharray:none;stroke-dashoffset:0;stroke-opacity:0;color-rendering:auto;image-rendering:auto;shape-rendering:auto;text-rendering:auto;enable-background:accumulate"
       d="m 1.7932357,43.477529 6.4998033,2.701502 5.073582,0.802763 8.389584,2.947813 1.690708,6.581687 -1.297793,7.284725 -20.2750373,-1.270967 -1.95110659,-8.039743 z"
       id="rect4332"
       inkscape:connector-curvature="0"
       sodipodi:nodetypes="ccccccccc" />
    <path
       style="color:#000000;clip-rule:nonzero;display:inline;overflow:visible;visibility:visible;opacity:1;isolation:auto;mix-blend-mode:normal;color-interpolation:sRGB;color-interpolation-filters:linearRGB;solid-color:#000000;solid-opacity:1;fill:#917c6f;fill-opacity:1;fill-rule:evenodd;stroke:#000000;stroke-width:0.15636776;stroke-linecap:butt;stroke-linejoin:bevel;stroke-miterlimit:4;stroke-dasharray:none;stroke-dashoffset:0;stroke-opacity:0;color-rendering:auto;image-rendering:auto;shape-rendering:auto;text-rendering:auto;enable-background:accumulate"
       d="m 4.9789642,47.417363 5.2088118,2.164928 4.065867,0.643318 6.723244,2.362317 1.3549,5.274433 -1.040026,5.837833 L 5.0437533,62.681663 3.4801758,56.238774 Z"
       id="rect4332-2"
       inkscape:connector-curvature="0"
       sodipodi:nodetypes="ccccccccc" />
    <path
       style="color:#000000;clip-rule:nonzero;display:inline;overflow:visible;visibility:visible;opacity:1;isolation:auto;mix-blend-mode:normal;color-interpolation:sRGB;color-interpolation-filters:linearRGB;solid-color:#000000;solid-opacity:1;fill:#241f1c;fill-opacity:1;fill-rule:evenodd;stroke:#000000;stroke-width:0.19512314;stroke-linecap:butt;stroke-linejoin:bevel;stroke-miterlimit:4;stroke-dasharray:none;stroke-dashoffset:0;stroke-opacity:0;color-rendering:auto;image-rendering:auto;shape-rendering:auto;text-rendering:auto;enable-background:accumulate"
       d="m 3.3756023,56.627705 1.617467,-9.346771 0.3798039,3.537924 1.6990185,0.04151 2.5590147,-0.914084 -4.3997766,2.667732 -0.3261362,4.130438 1.3893246,6.00669 -1.4864926,-0.03661 z"
       id="rect4350"
       inkscape:connector-curvature="0"
       sodipodi:nodetypes="cccccccccc" />
    <path
       style="color:#000000;clip-rule:nonzero;display:inline;overflow:visible;visibility:visible;opacity:1;isolation:auto;mix-blend-mode:normal;color-interpolation:sRGB;color-interpolation-filters:linearRGB;solid-color:#000000;solid-opacity:1;fill:#ac9393;fill-opacity:1;fill-rule:evenodd;stroke:#000000;stroke-width:0.19512314;stroke-linecap:butt;stroke-linejoin:bevel;stroke-miterlimit:4;stroke-dasharray:none;stroke-dashoffset:0;stroke-opacity:0;color-rendering:auto;image-rendering:auto;shape-rendering:auto;text-rendering:auto;enable-background:accumulate"
       d="m 9.6067824,53.568571 c 1.3477566,0.211315 2.2436866,-0.01864 4.6596986,0.405244 l 3.40628,-0.07992 4.374933,2.378123 0.353157,1.345556 -0.884713,6.008333 L 9.1722894,62.841928 13.355406,60.816907 C 8.7858694,59.511401 9.9070704,56.302229 9.6067824,53.568569 Z"
       id="rect4353"
       inkscape:connector-curvature="0"
       sodipodi:nodetypes="ccccccccc" />
    <path
       style="color:#000000;clip-rule:nonzero;display:inline;overflow:visible;visibility:visible;opacity:1;isolation:auto;mix-blend-mode:normal;color-interpolation:sRGB;color-interpolation-filters:linearRGB;solid-color:#000000;solid-opacity:1;fill:#916f6f;fill-opacity:1;fill-rule:evenodd;stroke:#000000;stroke-width:0.19512314;stroke-linecap:butt;stroke-linejoin:bevel;stroke-miterlimit:4;stroke-dasharray:none;stroke-dashoffset:0;stroke-opacity:0;color-rendering:auto;image-rendering:auto;shape-rendering:auto;text-rendering:auto;enable-background:accumulate"
       d="m 12.780502,55.233494 3.755967,3.46027 4.376768,3.542726 -5.358572,-2.598944 z"
       id="rect4356"
       inkscape:connector-curvature="0"
       sodipodi:nodetypes="ccccc" />
  </g>
</svg>
